<svg width="415" height="296" viewBox="0 0 415 296" fill="none" xmlns="http://www.w3.org/2000/svg">
<g filter="url(#filter0_f)">
<path d="M50 50H365V246H50V50Z" fill="black" fill-opacity="0.4"/>
</g>
<path d="M303.184 115.203L306.875 125.012L310.558 115.203H313.432V128H311.217V123.781L311.437 118.139L307.657 128H306.066L302.296 118.147L302.516 123.781V128H300.301V115.203H303.184ZM327.239 124.704C327.239 124.142 327.04 123.708 326.642 123.403C326.249 123.099 325.537 122.791 324.506 122.48C323.475 122.17 322.654 121.824 322.045 121.443C320.879 120.711 320.296 119.756 320.296 118.578C320.296 117.547 320.715 116.697 321.553 116.029C322.396 115.361 323.489 115.027 324.831 115.027C325.722 115.027 326.516 115.191 327.213 115.52C327.91 115.848 328.458 116.316 328.856 116.926C329.255 117.529 329.454 118.2 329.454 118.938H327.239C327.239 118.271 327.028 117.749 326.606 117.374C326.19 116.993 325.593 116.803 324.813 116.803C324.087 116.803 323.521 116.958 323.117 117.269C322.719 117.579 322.52 118.013 322.52 118.569C322.52 119.038 322.736 119.431 323.17 119.747C323.604 120.058 324.318 120.362 325.314 120.661C326.311 120.954 327.11 121.291 327.714 121.672C328.317 122.047 328.76 122.48 329.041 122.973C329.322 123.459 329.463 124.03 329.463 124.687C329.463 125.753 329.053 126.603 328.232 127.235C327.418 127.862 326.311 128.176 324.91 128.176C323.984 128.176 323.132 128.006 322.353 127.666C321.579 127.32 320.976 126.846 320.542 126.242C320.114 125.639 319.9 124.936 319.9 124.133H322.124C322.124 124.859 322.364 125.422 322.845 125.82C323.325 126.219 324.014 126.418 324.91 126.418C325.684 126.418 326.264 126.263 326.65 125.952C327.043 125.636 327.239 125.22 327.239 124.704ZM340.405 125.214L343.657 115.203H346.101L341.495 128H339.342L334.754 115.203H337.188L340.405 125.214ZM354.257 126.225H360.066V128H352.033V115.203H354.257V126.225Z" fill="#E4B71E"/>
<path d="M325.778 180.643C325.778 180.145 325.603 179.764 325.251 179.5C324.899 179.23 324.267 178.949 323.353 178.656C322.438 178.357 321.715 178.064 321.182 177.777C319.729 176.992 319.002 175.935 319.002 174.604C319.002 173.913 319.195 173.298 319.582 172.759C319.975 172.214 320.534 171.789 321.261 171.484C321.993 171.18 322.813 171.027 323.722 171.027C324.636 171.027 325.45 171.194 326.165 171.528C326.88 171.856 327.434 172.322 327.826 172.926C328.225 173.529 328.424 174.215 328.424 174.982H325.787C325.787 174.396 325.603 173.942 325.233 173.62C324.864 173.292 324.346 173.128 323.678 173.128C323.033 173.128 322.532 173.266 322.175 173.541C321.817 173.811 321.639 174.168 321.639 174.613C321.639 175.029 321.847 175.378 322.263 175.659C322.685 175.94 323.303 176.204 324.117 176.45C325.617 176.901 326.71 177.461 327.396 178.129C328.081 178.797 328.424 179.629 328.424 180.625C328.424 181.732 328.005 182.603 327.167 183.235C326.329 183.862 325.201 184.176 323.783 184.176C322.799 184.176 321.902 183.997 321.094 183.64C320.285 183.276 319.667 182.781 319.239 182.154C318.817 181.527 318.606 180.801 318.606 179.975H321.252C321.252 181.387 322.096 182.093 323.783 182.093C324.41 182.093 324.899 181.967 325.251 181.715C325.603 181.457 325.778 181.1 325.778 180.643ZM333.091 172.152V174.49H334.717V176.354H333.091V181.1C333.091 181.451 333.158 181.703 333.293 181.855C333.428 182.008 333.686 182.084 334.066 182.084C334.348 182.084 334.597 182.063 334.813 182.022V183.947C334.315 184.1 333.803 184.176 333.275 184.176C331.494 184.176 330.586 183.276 330.551 181.478V176.354H329.162V174.49H330.551V172.152H333.091ZM341.643 184C341.525 183.771 341.44 183.487 341.388 183.147C340.772 183.833 339.973 184.176 338.988 184.176C338.057 184.176 337.283 183.906 336.668 183.367C336.059 182.828 335.754 182.148 335.754 181.328C335.754 180.32 336.126 179.547 336.87 179.008C337.62 178.469 338.701 178.196 340.113 178.19H341.282V177.646C341.282 177.206 341.168 176.854 340.939 176.591C340.717 176.327 340.362 176.195 339.876 176.195C339.448 176.195 339.111 176.298 338.865 176.503C338.625 176.708 338.505 176.989 338.505 177.347H335.965C335.965 176.796 336.135 176.286 336.475 175.817C336.814 175.349 337.295 174.982 337.916 174.719C338.537 174.449 339.234 174.314 340.008 174.314C341.18 174.314 342.108 174.61 342.794 175.202C343.485 175.788 343.831 176.614 343.831 177.681V181.803C343.837 182.705 343.963 183.388 344.209 183.851V184H341.643ZM339.542 182.233C339.917 182.233 340.263 182.151 340.579 181.987C340.896 181.817 341.13 181.592 341.282 181.311V179.676H340.333C339.062 179.676 338.385 180.115 338.303 180.994L338.294 181.144C338.294 181.46 338.405 181.721 338.628 181.926C338.851 182.131 339.155 182.233 339.542 182.233ZM351.126 176.872C350.78 176.825 350.476 176.802 350.212 176.802C349.251 176.802 348.621 177.127 348.322 177.777V184H345.782V174.49H348.182L348.252 175.624C348.762 174.751 349.468 174.314 350.37 174.314C350.651 174.314 350.915 174.353 351.161 174.429L351.126 176.872ZM357.507 181.372C357.507 181.062 357.352 180.818 357.041 180.643C356.736 180.461 356.244 180.3 355.564 180.159C353.303 179.685 352.172 178.724 352.172 177.276C352.172 176.433 352.521 175.729 353.218 175.167C353.921 174.599 354.838 174.314 355.969 174.314C357.176 174.314 358.14 174.599 358.86 175.167C359.587 175.735 359.95 176.474 359.95 177.382H357.41C357.41 177.019 357.293 176.72 357.059 176.485C356.824 176.245 356.458 176.125 355.96 176.125C355.532 176.125 355.201 176.222 354.967 176.415C354.732 176.608 354.615 176.854 354.615 177.153C354.615 177.435 354.747 177.663 355.011 177.839C355.28 178.009 355.731 178.158 356.364 178.287C356.997 178.41 357.53 178.551 357.964 178.709C359.306 179.201 359.977 180.054 359.977 181.267C359.977 182.134 359.604 182.837 358.86 183.376C358.116 183.909 357.155 184.176 355.978 184.176C355.181 184.176 354.472 184.035 353.851 183.754C353.235 183.467 352.752 183.077 352.4 182.585C352.049 182.087 351.873 181.551 351.873 180.977H354.281C354.305 181.428 354.472 181.773 354.782 182.014C355.093 182.254 355.509 182.374 356.03 182.374C356.517 182.374 356.883 182.283 357.129 182.102C357.381 181.914 357.507 181.671 357.507 181.372Z" fill="white"/>
<path d="M178.082 219H176.386V213.085H169.935V219H168.247V206.203H169.935V211.705H176.386V206.203H178.082V219ZM184.771 219.176C183.481 219.176 182.433 218.754 181.624 217.91C180.815 217.061 180.411 215.927 180.411 214.509V214.21C180.411 213.267 180.59 212.426 180.947 211.688C181.311 210.943 181.814 210.363 182.459 209.947C183.109 209.525 183.812 209.314 184.568 209.314C185.805 209.314 186.766 209.722 187.451 210.536C188.137 211.351 188.479 212.517 188.479 214.034V214.711H182.037C182.061 215.648 182.333 216.407 182.854 216.987C183.382 217.562 184.05 217.849 184.858 217.849C185.433 217.849 185.919 217.731 186.317 217.497C186.716 217.263 187.064 216.952 187.363 216.565L188.356 217.339C187.56 218.563 186.364 219.176 184.771 219.176ZM184.568 210.65C183.912 210.65 183.361 210.891 182.916 211.371C182.471 211.846 182.195 212.514 182.09 213.375H186.854V213.252C186.807 212.426 186.584 211.787 186.186 211.336C185.787 210.879 185.248 210.65 184.568 210.65ZM191.907 209.49L191.96 210.686C192.687 209.771 193.636 209.314 194.808 209.314C196.817 209.314 197.831 210.448 197.849 212.716V219H196.223V212.707C196.217 212.021 196.059 211.515 195.748 211.187C195.443 210.858 194.966 210.694 194.315 210.694C193.788 210.694 193.325 210.835 192.927 211.116C192.528 211.397 192.218 211.767 191.995 212.224V219H190.369V209.49H191.907ZM204.897 210.949C204.651 210.908 204.385 210.888 204.098 210.888C203.031 210.888 202.308 211.342 201.927 212.25V219H200.301V209.49H201.883L201.909 210.589C202.442 209.739 203.198 209.314 204.177 209.314C204.493 209.314 204.733 209.355 204.897 209.438V210.949ZM209.67 216.618L211.885 209.49H213.625L209.802 220.468C209.21 222.05 208.27 222.841 206.98 222.841L206.673 222.814L206.066 222.7V221.382L206.506 221.417C207.057 221.417 207.484 221.306 207.789 221.083C208.1 220.86 208.354 220.453 208.554 219.861L208.914 218.895L205.521 209.49H207.297L209.67 216.618ZM229.217 214.939C229.059 216.293 228.558 217.339 227.714 218.077C226.876 218.81 225.76 219.176 224.365 219.176C222.854 219.176 221.641 218.634 220.727 217.55C219.818 216.466 219.364 215.016 219.364 213.199V211.969C219.364 210.779 219.575 209.733 219.997 208.831C220.425 207.929 221.028 207.237 221.808 206.757C222.587 206.271 223.489 206.027 224.515 206.027C225.874 206.027 226.964 206.408 227.784 207.17C228.604 207.926 229.082 208.975 229.217 210.316H227.521C227.374 209.297 227.055 208.559 226.562 208.102C226.076 207.645 225.394 207.416 224.515 207.416C223.437 207.416 222.59 207.814 221.975 208.611C221.365 209.408 221.061 210.542 221.061 212.013V213.252C221.061 214.641 221.351 215.745 221.931 216.565C222.511 217.386 223.322 217.796 224.365 217.796C225.303 217.796 226.021 217.585 226.519 217.163C227.022 216.735 227.356 215.994 227.521 214.939H229.217ZM237.145 219C237.051 218.812 236.975 218.479 236.916 217.998C236.16 218.783 235.258 219.176 234.209 219.176C233.271 219.176 232.501 218.912 231.897 218.385C231.3 217.852 231.001 217.178 231.001 216.363C231.001 215.373 231.376 214.605 232.126 214.061C232.882 213.51 233.942 213.234 235.308 213.234H236.89V212.487C236.89 211.919 236.72 211.468 236.38 211.134C236.04 210.794 235.539 210.624 234.877 210.624C234.297 210.624 233.811 210.771 233.418 211.063C233.025 211.356 232.829 211.711 232.829 212.127H231.194C231.194 211.652 231.361 211.195 231.695 210.756C232.035 210.311 232.492 209.959 233.066 209.701C233.646 209.443 234.282 209.314 234.974 209.314C236.069 209.314 236.928 209.59 237.549 210.141C238.17 210.686 238.492 211.438 238.516 212.399V216.776C238.516 217.649 238.627 218.344 238.85 218.859V219H237.145ZM234.446 217.761C234.956 217.761 235.439 217.629 235.896 217.365C236.354 217.102 236.685 216.759 236.89 216.337V214.386H235.615C233.623 214.386 232.627 214.969 232.627 216.135C232.627 216.645 232.797 217.043 233.137 217.33C233.477 217.617 233.913 217.761 234.446 217.761ZM244.062 216.794L246.417 209.49H248.078L244.668 219H243.429L239.983 209.49H241.645L244.062 216.794ZM251.409 219H249.783V209.49H251.409V219ZM249.651 206.968C249.651 206.704 249.73 206.481 249.889 206.3C250.053 206.118 250.293 206.027 250.609 206.027C250.926 206.027 251.166 206.118 251.33 206.3C251.494 206.481 251.576 206.704 251.576 206.968C251.576 207.231 251.494 207.451 251.33 207.627C251.166 207.803 250.926 207.891 250.609 207.891C250.293 207.891 250.053 207.803 249.889 207.627C249.73 207.451 249.651 207.231 249.651 206.968ZM255.786 219H254.16V205.5H255.786V219ZM260.163 219H258.537V205.5H260.163V219ZM262.721 221.549L261.798 220.916C262.349 220.148 262.636 219.357 262.659 218.543V217.075H264.25V218.35C264.25 218.941 264.104 219.533 263.811 220.125C263.523 220.717 263.16 221.191 262.721 221.549ZM278.084 213.349H272.714V219H271.026V206.203H278.954V207.592H272.714V211.969H278.084V213.349ZM285.089 210.949C284.843 210.908 284.576 210.888 284.289 210.888C283.223 210.888 282.499 211.342 282.118 212.25V219H280.492V209.49H282.074L282.101 210.589C282.634 209.739 283.39 209.314 284.368 209.314C284.685 209.314 284.925 209.355 285.089 209.438V210.949ZM290.362 219.176C289.073 219.176 288.024 218.754 287.216 217.91C286.407 217.061 286.003 215.927 286.003 214.509V214.21C286.003 213.267 286.182 212.426 286.539 211.688C286.902 210.943 287.406 210.363 288.051 209.947C288.701 209.525 289.404 209.314 290.16 209.314C291.396 209.314 292.357 209.722 293.043 210.536C293.729 211.351 294.071 212.517 294.071 214.034V214.711H287.629C287.652 215.648 287.925 216.407 288.446 216.987C288.974 217.562 289.642 217.849 290.45 217.849C291.024 217.849 291.511 217.731 291.909 217.497C292.308 217.263 292.656 216.952 292.955 216.565L293.948 217.339C293.151 218.563 291.956 219.176 290.362 219.176ZM290.16 210.65C289.504 210.65 288.953 210.891 288.508 211.371C288.062 211.846 287.787 212.514 287.682 213.375H292.445V213.252C292.398 212.426 292.176 211.787 291.777 211.336C291.379 210.879 290.84 210.65 290.16 210.65ZM298.949 216.618L301.164 209.49H302.904L299.081 220.468C298.489 222.05 297.549 222.841 296.26 222.841L295.952 222.814L295.346 222.7V221.382L295.785 221.417C296.336 221.417 296.764 221.306 297.068 221.083C297.379 220.86 297.634 220.453 297.833 219.861L298.193 218.895L294.801 209.49H296.576L298.949 216.618ZM310.094 219C310 218.812 309.924 218.479 309.865 217.998C309.109 218.783 308.207 219.176 307.158 219.176C306.221 219.176 305.45 218.912 304.847 218.385C304.249 217.852 303.95 217.178 303.95 216.363C303.95 215.373 304.325 214.605 305.075 214.061C305.831 213.51 306.892 213.234 308.257 213.234H309.839V212.487C309.839 211.919 309.669 211.468 309.329 211.134C308.989 210.794 308.488 210.624 307.826 210.624C307.246 210.624 306.76 210.771 306.367 211.063C305.975 211.356 305.778 211.711 305.778 212.127H304.144C304.144 211.652 304.311 211.195 304.645 210.756C304.984 210.311 305.441 209.959 306.016 209.701C306.596 209.443 307.231 209.314 307.923 209.314C309.019 209.314 309.877 209.59 310.498 210.141C311.119 210.686 311.441 211.438 311.465 212.399V216.776C311.465 217.649 311.576 218.344 311.799 218.859V219H310.094ZM307.396 217.761C307.905 217.761 308.389 217.629 308.846 217.365C309.303 217.102 309.634 216.759 309.839 216.337V214.386H308.564C306.572 214.386 305.576 214.969 305.576 216.135C305.576 216.645 305.746 217.043 306.086 217.33C306.426 217.617 306.862 217.761 307.396 217.761ZM325.8 215.66H320.438L319.234 219H317.494L322.381 206.203H323.857L328.753 219H327.021L325.8 215.66ZM320.948 214.271H325.299L323.119 208.286L320.948 214.271ZM331.987 219H330.361V205.5H331.987V219ZM336.364 219H334.738V205.5H336.364V219ZM344.846 219C344.752 218.812 344.676 218.479 344.617 217.998C343.861 218.783 342.959 219.176 341.91 219.176C340.973 219.176 340.202 218.912 339.599 218.385C339.001 217.852 338.702 217.178 338.702 216.363C338.702 215.373 339.077 214.605 339.827 214.061C340.583 213.51 341.644 213.234 343.009 213.234H344.591V212.487C344.591 211.919 344.421 211.468 344.081 211.134C343.741 210.794 343.24 210.624 342.578 210.624C341.998 210.624 341.512 210.771 341.119 211.063C340.727 211.356 340.53 211.711 340.53 212.127H338.896C338.896 211.652 339.062 211.195 339.396 210.756C339.736 210.311 340.193 209.959 340.768 209.701C341.348 209.443 341.983 209.314 342.675 209.314C343.771 209.314 344.629 209.59 345.25 210.141C345.871 210.686 346.193 211.438 346.217 212.399V216.776C346.217 217.649 346.328 218.344 346.551 218.859V219H344.846ZM342.147 217.761C342.657 217.761 343.141 217.629 343.598 217.365C344.055 217.102 344.386 216.759 344.591 216.337V214.386H343.316C341.324 214.386 340.328 214.969 340.328 216.135C340.328 216.645 340.498 217.043 340.838 217.33C341.178 217.617 341.614 217.761 342.147 217.761ZM350.304 209.49L350.356 210.686C351.083 209.771 352.032 209.314 353.204 209.314C355.214 209.314 356.228 210.448 356.245 212.716V219H354.619V212.707C354.613 212.021 354.455 211.515 354.145 211.187C353.84 210.858 353.362 210.694 352.712 210.694C352.185 210.694 351.722 210.835 351.323 211.116C350.925 211.397 350.614 211.767 350.392 212.224V219H348.766V209.49H350.304ZM358.645 221.549L357.722 220.916C358.272 220.148 358.56 219.357 358.583 218.543V217.075H360.174V218.35C360.174 218.941 360.027 219.533 359.734 220.125C359.447 220.717 359.084 221.191 358.645 221.549ZM280.396 227.203H282.092V236.265C282.092 237.489 281.723 238.447 280.984 239.139C280.252 239.83 279.273 240.176 278.049 240.176C276.777 240.176 275.787 239.851 275.078 239.2C274.369 238.55 274.015 237.639 274.015 236.467H275.702C275.702 237.199 275.901 237.771 276.3 238.181C276.704 238.591 277.287 238.796 278.049 238.796C278.746 238.796 279.309 238.576 279.736 238.137C280.17 237.697 280.39 237.082 280.396 236.291V227.203ZM284.28 235.157C284.28 234.226 284.462 233.388 284.825 232.644C285.194 231.899 285.704 231.325 286.354 230.921C287.011 230.517 287.758 230.314 288.596 230.314C289.891 230.314 290.937 230.763 291.733 231.659C292.536 232.556 292.938 233.748 292.938 235.236V235.351C292.938 236.276 292.759 237.108 292.401 237.847C292.05 238.579 291.543 239.15 290.881 239.561C290.225 239.971 289.469 240.176 288.613 240.176C287.324 240.176 286.278 239.728 285.476 238.831C284.679 237.935 284.28 236.748 284.28 235.271V235.157ZM285.915 235.351C285.915 236.405 286.158 237.252 286.645 237.891C287.137 238.529 287.793 238.849 288.613 238.849C289.439 238.849 290.096 238.526 290.582 237.882C291.068 237.231 291.312 236.323 291.312 235.157C291.312 234.114 291.062 233.271 290.564 232.626C290.072 231.976 289.416 231.65 288.596 231.65C287.793 231.65 287.146 231.97 286.653 232.608C286.161 233.247 285.915 234.161 285.915 235.351ZM298.923 240.176C297.634 240.176 296.585 239.754 295.776 238.91C294.968 238.061 294.563 236.927 294.563 235.509V235.21C294.563 234.267 294.742 233.426 295.1 232.688C295.463 231.943 295.967 231.363 296.611 230.947C297.262 230.525 297.965 230.314 298.721 230.314C299.957 230.314 300.918 230.722 301.604 231.536C302.289 232.351 302.632 233.517 302.632 235.034V235.711H296.189C296.213 236.648 296.485 237.407 297.007 237.987C297.534 238.562 298.202 238.849 299.011 238.849C299.585 238.849 300.071 238.731 300.47 238.497C300.868 238.263 301.217 237.952 301.516 237.565L302.509 238.339C301.712 239.563 300.517 240.176 298.923 240.176ZM298.721 231.65C298.064 231.65 297.514 231.891 297.068 232.371C296.623 232.846 296.348 233.514 296.242 234.375H301.006V234.252C300.959 233.426 300.736 232.787 300.338 232.336C299.939 231.879 299.4 231.65 298.721 231.65ZM307.51 237.618L309.725 230.49H311.465L307.642 241.468C307.05 243.05 306.109 243.841 304.82 243.841L304.513 243.814L303.906 243.7V242.382L304.346 242.417C304.896 242.417 305.324 242.306 305.629 242.083C305.939 241.86 306.194 241.453 306.394 240.861L306.754 239.895L303.361 230.49H305.137L307.51 237.618ZM317.644 240V227.203H321.827C323.216 227.203 324.259 227.49 324.956 228.064C325.659 228.639 326.011 229.488 326.011 230.613C326.011 231.211 325.841 231.741 325.501 232.204C325.161 232.661 324.698 233.016 324.112 233.268C324.804 233.461 325.349 233.83 325.747 234.375C326.151 234.914 326.354 235.559 326.354 236.309C326.354 237.457 325.981 238.359 325.237 239.016C324.493 239.672 323.441 240 322.082 240H317.644ZM319.331 234.015V238.62H322.117C322.902 238.62 323.521 238.418 323.972 238.014C324.429 237.604 324.657 237.041 324.657 236.326C324.657 234.785 323.819 234.015 322.144 234.015H319.331ZM319.331 232.661H321.88C322.618 232.661 323.207 232.477 323.646 232.107C324.092 231.738 324.314 231.237 324.314 230.604C324.314 229.901 324.109 229.392 323.699 229.075C323.289 228.753 322.665 228.592 321.827 228.592H319.331V232.661ZM334.475 240C334.381 239.812 334.305 239.479 334.246 238.998C333.49 239.783 332.588 240.176 331.539 240.176C330.602 240.176 329.831 239.912 329.228 239.385C328.63 238.852 328.331 238.178 328.331 237.363C328.331 236.373 328.706 235.605 329.456 235.061C330.212 234.51 331.272 234.234 332.638 234.234H334.22V233.487C334.22 232.919 334.05 232.468 333.71 232.134C333.37 231.794 332.869 231.624 332.207 231.624C331.627 231.624 331.141 231.771 330.748 232.063C330.355 232.356 330.159 232.711 330.159 233.127H328.524C328.524 232.652 328.691 232.195 329.025 231.756C329.365 231.311 329.822 230.959 330.396 230.701C330.977 230.443 331.612 230.314 332.304 230.314C333.399 230.314 334.258 230.59 334.879 231.141C335.5 231.686 335.822 232.438 335.846 233.399V237.776C335.846 238.649 335.957 239.344 336.18 239.859V240H334.475ZM331.776 238.761C332.286 238.761 332.77 238.629 333.227 238.365C333.684 238.102 334.015 237.759 334.22 237.337V235.386H332.945C330.953 235.386 329.957 235.969 329.957 237.135C329.957 237.645 330.127 238.043 330.467 238.33C330.807 238.617 331.243 238.761 331.776 238.761ZM340.601 228.188V230.49H342.376V231.747H340.601V237.645C340.601 238.025 340.68 238.312 340.838 238.506C340.996 238.693 341.266 238.787 341.646 238.787C341.834 238.787 342.092 238.752 342.42 238.682V240C341.992 240.117 341.576 240.176 341.172 240.176C340.445 240.176 339.897 239.956 339.528 239.517C339.159 239.077 338.975 238.453 338.975 237.645V231.747H337.243V230.49H338.975V228.188H340.601ZM348.229 240.176C346.94 240.176 345.892 239.754 345.083 238.91C344.274 238.061 343.87 236.927 343.87 235.509V235.21C343.87 234.267 344.049 233.426 344.406 232.688C344.77 231.943 345.273 231.363 345.918 230.947C346.568 230.525 347.271 230.314 348.027 230.314C349.264 230.314 350.225 230.722 350.91 231.536C351.596 232.351 351.938 233.517 351.938 235.034V235.711H345.496C345.52 236.648 345.792 237.407 346.313 237.987C346.841 238.562 347.509 238.849 348.317 238.849C348.892 238.849 349.378 238.731 349.776 238.497C350.175 238.263 350.523 237.952 350.822 237.565L351.815 238.339C351.019 239.563 349.823 240.176 348.229 240.176ZM348.027 231.65C347.371 231.65 346.82 231.891 346.375 232.371C345.93 232.846 345.654 233.514 345.549 234.375H350.312V234.252C350.266 233.426 350.043 232.787 349.645 232.336C349.246 231.879 348.707 231.65 348.027 231.65ZM356.816 237.618L359.031 230.49H360.771L356.948 241.468C356.356 243.05 355.416 243.841 354.127 243.841L353.819 243.814L353.213 243.7V242.382L353.652 242.417C354.203 242.417 354.631 242.306 354.936 242.083C355.246 241.86 355.501 241.453 355.7 240.861L356.061 239.895L352.668 230.49H354.443L356.816 237.618Z" fill="white"/>
<path d="M185.448 67H177.063V65.8311L181.493 60.9092C182.149 60.165 182.601 59.5615 182.847 59.0986C183.099 58.6299 183.225 58.1465 183.225 57.6484C183.225 56.9805 183.022 56.4326 182.618 56.0049C182.214 55.5771 181.675 55.3633 181.001 55.3633C180.192 55.3633 179.562 55.5947 179.111 56.0576C178.666 56.5146 178.443 57.1533 178.443 57.9736H176.817C176.817 56.7959 177.195 55.8438 177.951 55.1172C178.713 54.3906 179.729 54.0273 181.001 54.0273C182.19 54.0273 183.131 54.3408 183.822 54.9678C184.514 55.5889 184.859 56.418 184.859 57.4551C184.859 58.7148 184.057 60.2148 182.451 61.9551L179.023 65.6729H185.448V67ZM195.195 61.542C195.195 63.4463 194.87 64.8613 194.22 65.7871C193.569 66.7129 192.553 67.1758 191.17 67.1758C189.805 67.1758 188.794 66.7246 188.138 65.8223C187.481 64.9141 187.142 63.5605 187.118 61.7617V59.5908C187.118 57.71 187.443 56.3125 188.094 55.3984C188.744 54.4844 189.764 54.0273 191.152 54.0273C192.529 54.0273 193.543 54.4697 194.193 55.3545C194.844 56.2334 195.178 57.5928 195.195 59.4326V61.542ZM193.569 59.3184C193.569 57.9414 193.376 56.9395 192.989 56.3125C192.603 55.6797 191.99 55.3633 191.152 55.3633C190.32 55.3633 189.714 55.6768 189.333 56.3037C188.952 56.9307 188.756 57.8945 188.744 59.1953V61.7969C188.744 63.1797 188.943 64.2021 189.342 64.8643C189.746 65.5205 190.355 65.8486 191.17 65.8486C191.973 65.8486 192.567 65.5381 192.954 64.917C193.347 64.2959 193.552 63.3174 193.569 61.9814V59.3184ZM205.663 67H197.278V65.8311L201.708 60.9092C202.364 60.165 202.815 59.5615 203.062 59.0986C203.313 58.6299 203.439 58.1465 203.439 57.6484C203.439 56.9805 203.237 56.4326 202.833 56.0049C202.429 55.5771 201.89 55.3633 201.216 55.3633C200.407 55.3633 199.777 55.5947 199.326 56.0576C198.881 56.5146 198.658 57.1533 198.658 57.9736H197.032C197.032 56.7959 197.41 55.8438 198.166 55.1172C198.928 54.3906 199.944 54.0273 201.216 54.0273C202.405 54.0273 203.346 54.3408 204.037 54.9678C204.729 55.5889 205.074 56.418 205.074 57.4551C205.074 58.7148 204.271 60.2148 202.666 61.9551L199.238 65.6729H205.663V67ZM215.41 61.542C215.41 63.4463 215.085 64.8613 214.435 65.7871C213.784 66.7129 212.768 67.1758 211.385 67.1758C210.02 67.1758 209.009 66.7246 208.353 65.8223C207.696 64.9141 207.356 63.5605 207.333 61.7617V59.5908C207.333 57.71 207.658 56.3125 208.309 55.3984C208.959 54.4844 209.979 54.0273 211.367 54.0273C212.744 54.0273 213.758 54.4697 214.408 55.3545C215.059 56.2334 215.393 57.5928 215.41 59.4326V61.542ZM213.784 59.3184C213.784 57.9414 213.591 56.9395 213.204 56.3125C212.817 55.6797 212.205 55.3633 211.367 55.3633C210.535 55.3633 209.929 55.6768 209.548 56.3037C209.167 56.9307 208.971 57.8945 208.959 59.1953V61.7969C208.959 63.1797 209.158 64.2021 209.557 64.8643C209.961 65.5205 210.57 65.8486 211.385 65.8486C212.188 65.8486 212.782 65.5381 213.169 64.917C213.562 64.2959 213.767 63.3174 213.784 61.9814V59.3184Z" fill="white"/>
<path d="M59.5518 122.66H54.1904L52.9863 126H51.2461L56.1328 113.203H57.6094L62.5049 126H60.7734L59.5518 122.66ZM54.7002 121.271H59.0508L56.8711 115.286L54.7002 121.271ZM67.7871 124.849C68.3672 124.849 68.874 124.673 69.3076 124.321C69.7412 123.97 69.9814 123.53 70.0283 123.003H71.5664C71.5371 123.548 71.3496 124.066 71.0039 124.559C70.6582 125.051 70.1953 125.443 69.6152 125.736C69.041 126.029 68.4316 126.176 67.7871 126.176C66.4922 126.176 65.4609 125.745 64.6934 124.884C63.9316 124.017 63.5508 122.833 63.5508 121.333V121.061C63.5508 120.135 63.7207 119.312 64.0605 118.591C64.4004 117.87 64.8867 117.311 65.5195 116.912C66.1582 116.514 66.9111 116.314 67.7783 116.314C68.8447 116.314 69.7295 116.634 70.4326 117.272C71.1416 117.911 71.5195 118.74 71.5664 119.76H70.0283C69.9814 119.145 69.7471 118.641 69.3252 118.248C68.9092 117.85 68.3936 117.65 67.7783 117.65C66.9521 117.65 66.3105 117.949 65.8535 118.547C65.4023 119.139 65.1768 119.997 65.1768 121.122V121.43C65.1768 122.525 65.4023 123.369 65.8535 123.961C66.3047 124.553 66.9492 124.849 67.7871 124.849ZM75.6006 114.188V116.49H77.376V117.747H75.6006V123.645C75.6006 124.025 75.6797 124.312 75.8379 124.506C75.9961 124.693 76.2656 124.787 76.6465 124.787C76.834 124.787 77.0918 124.752 77.4199 124.682V126C76.9922 126.117 76.5762 126.176 76.1719 126.176C75.4453 126.176 74.8975 125.956 74.5283 125.517C74.1592 125.077 73.9746 124.453 73.9746 123.645V117.747H72.2432V116.49H73.9746V114.188H75.6006ZM81.0498 126H79.4238V116.49H81.0498V126ZM79.292 113.968C79.292 113.704 79.3711 113.481 79.5293 113.3C79.6934 113.118 79.9336 113.027 80.25 113.027C80.5664 113.027 80.8066 113.118 80.9707 113.3C81.1348 113.481 81.2168 113.704 81.2168 113.968C81.2168 114.231 81.1348 114.451 80.9707 114.627C80.8066 114.803 80.5664 114.891 80.25 114.891C79.9336 114.891 79.6934 114.803 79.5293 114.627C79.3711 114.451 79.292 114.231 79.292 113.968ZM83.2295 121.157C83.2295 120.226 83.4111 119.388 83.7744 118.644C84.1436 117.899 84.6533 117.325 85.3037 116.921C85.96 116.517 86.707 116.314 87.5449 116.314C88.8398 116.314 89.8857 116.763 90.6826 117.659C91.4854 118.556 91.8867 119.748 91.8867 121.236V121.351C91.8867 122.276 91.708 123.108 91.3506 123.847C90.999 124.579 90.4922 125.15 89.8301 125.561C89.1738 125.971 88.418 126.176 87.5625 126.176C86.2734 126.176 85.2275 125.728 84.4248 124.831C83.6279 123.935 83.2295 122.748 83.2295 121.271V121.157ZM84.8643 121.351C84.8643 122.405 85.1074 123.252 85.5938 123.891C86.0859 124.529 86.7422 124.849 87.5625 124.849C88.3887 124.849 89.0449 124.526 89.5312 123.882C90.0176 123.231 90.2607 122.323 90.2607 121.157C90.2607 120.114 90.0117 119.271 89.5137 118.626C89.0215 117.976 88.3652 117.65 87.5449 117.65C86.7422 117.65 86.0947 117.97 85.6025 118.608C85.1104 119.247 84.8643 120.161 84.8643 121.351ZM95.4639 116.49L95.5166 117.686C96.2432 116.771 97.1924 116.314 98.3643 116.314C100.374 116.314 101.388 117.448 101.405 119.716V126H99.7793V119.707C99.7734 119.021 99.6152 118.515 99.3047 118.187C99 117.858 98.5225 117.694 97.8721 117.694C97.3447 117.694 96.8818 117.835 96.4834 118.116C96.085 118.397 95.7744 118.767 95.5518 119.224V126H93.9258V116.49H95.4639ZM103.805 128.549L102.882 127.916C103.433 127.148 103.72 126.357 103.743 125.543V124.075H105.334V125.35C105.334 125.941 105.188 126.533 104.895 127.125C104.607 127.717 104.244 128.191 103.805 128.549ZM119.177 122.66H113.815L112.611 126H110.871L115.758 113.203H117.234L122.13 126H120.398L119.177 122.66ZM114.325 121.271H118.676L116.496 115.286L114.325 121.271ZM123.202 121.166C123.202 119.707 123.548 118.535 124.239 117.65C124.931 116.76 125.836 116.314 126.955 116.314C128.068 116.314 128.95 116.695 129.601 117.457V112.5H131.227V126H129.732L129.653 124.98C129.003 125.777 128.098 126.176 126.938 126.176C125.836 126.176 124.937 125.725 124.239 124.822C123.548 123.92 123.202 122.742 123.202 121.289V121.166ZM124.828 121.351C124.828 122.429 125.051 123.272 125.496 123.882C125.941 124.491 126.557 124.796 127.342 124.796C128.373 124.796 129.126 124.333 129.601 123.407V119.039C129.114 118.143 128.367 117.694 127.359 117.694C126.562 117.694 125.941 118.002 125.496 118.617C125.051 119.232 124.828 120.144 124.828 121.351ZM136.896 123.794L139.251 116.49H140.912L137.502 126H136.263L132.817 116.49H134.479L136.896 123.794ZM146.3 126.176C145.011 126.176 143.962 125.754 143.153 124.91C142.345 124.061 141.94 122.927 141.94 121.509V121.21C141.94 120.267 142.119 119.426 142.477 118.688C142.84 117.943 143.344 117.363 143.988 116.947C144.639 116.525 145.342 116.314 146.098 116.314C147.334 116.314 148.295 116.722 148.98 117.536C149.666 118.351 150.009 119.517 150.009 121.034V121.711H143.566C143.59 122.648 143.862 123.407 144.384 123.987C144.911 124.562 145.579 124.849 146.388 124.849C146.962 124.849 147.448 124.731 147.847 124.497C148.245 124.263 148.594 123.952 148.893 123.565L149.886 124.339C149.089 125.563 147.894 126.176 146.3 126.176ZM146.098 117.65C145.441 117.65 144.891 117.891 144.445 118.371C144 118.846 143.725 119.514 143.619 120.375H148.383V120.252C148.336 119.426 148.113 118.787 147.715 118.336C147.316 117.879 146.777 117.65 146.098 117.65ZM153.437 116.49L153.489 117.686C154.216 116.771 155.165 116.314 156.337 116.314C158.347 116.314 159.36 117.448 159.378 119.716V126H157.752V119.707C157.746 119.021 157.588 118.515 157.277 118.187C156.973 117.858 156.495 117.694 155.845 117.694C155.317 117.694 154.854 117.835 154.456 118.116C154.058 118.397 153.747 118.767 153.524 119.224V126H151.898V116.49H153.437ZM164.036 114.188V116.49H165.812V117.747H164.036V123.645C164.036 124.025 164.115 124.312 164.273 124.506C164.432 124.693 164.701 124.787 165.082 124.787C165.27 124.787 165.527 124.752 165.855 124.682V126C165.428 126.117 165.012 126.176 164.607 126.176C163.881 126.176 163.333 125.956 162.964 125.517C162.595 125.077 162.41 124.453 162.41 123.645V117.747H160.679V116.49H162.41V114.188H164.036ZM173.59 125.06C172.957 125.804 172.028 126.176 170.804 126.176C169.79 126.176 169.017 125.883 168.483 125.297C167.956 124.705 167.689 123.832 167.684 122.678V116.49H169.31V122.634C169.31 124.075 169.896 124.796 171.067 124.796C172.31 124.796 173.136 124.333 173.546 123.407V116.49H175.172V126H173.625L173.59 125.06ZM182.247 117.949C182.001 117.908 181.734 117.888 181.447 117.888C180.381 117.888 179.657 118.342 179.276 119.25V126H177.65V116.49H179.232L179.259 117.589C179.792 116.739 180.548 116.314 181.526 116.314C181.843 116.314 182.083 116.355 182.247 116.438V117.949ZM187.521 126.176C186.231 126.176 185.183 125.754 184.374 124.91C183.565 124.061 183.161 122.927 183.161 121.509V121.21C183.161 120.267 183.34 119.426 183.697 118.688C184.061 117.943 184.564 117.363 185.209 116.947C185.859 116.525 186.562 116.314 187.318 116.314C188.555 116.314 189.516 116.722 190.201 117.536C190.887 118.351 191.229 119.517 191.229 121.034V121.711H184.787C184.811 122.648 185.083 123.407 185.604 123.987C186.132 124.562 186.8 124.849 187.608 124.849C188.183 124.849 188.669 124.731 189.067 124.497C189.466 124.263 189.814 123.952 190.113 123.565L191.106 124.339C190.31 125.563 189.114 126.176 187.521 126.176ZM187.318 117.65C186.662 117.65 186.111 117.891 185.666 118.371C185.221 118.846 184.945 119.514 184.84 120.375H189.604V120.252C189.557 119.426 189.334 118.787 188.936 118.336C188.537 117.879 187.998 117.65 187.318 117.65ZM193.066 128.549L192.144 127.916C192.694 127.148 192.981 126.357 193.005 125.543V124.075H194.596V125.35C194.596 125.941 194.449 126.533 194.156 127.125C193.869 127.717 193.506 128.191 193.066 128.549ZM201.372 126V113.203H204.984C206.098 113.203 207.082 113.449 207.938 113.941C208.793 114.434 209.452 115.134 209.915 116.042C210.384 116.95 210.621 117.993 210.627 119.171V119.988C210.627 121.195 210.393 122.253 209.924 123.161C209.461 124.069 208.796 124.767 207.929 125.253C207.067 125.739 206.062 125.988 204.914 126H201.372ZM203.06 114.592V124.62H204.835C206.136 124.62 207.146 124.216 207.867 123.407C208.594 122.599 208.957 121.447 208.957 119.953V119.206C208.957 117.753 208.614 116.625 207.929 115.822C207.249 115.014 206.282 114.604 205.028 114.592H203.06ZM217.526 117.949C217.28 117.908 217.014 117.888 216.727 117.888C215.66 117.888 214.937 118.342 214.556 119.25V126H212.93V116.49H214.512L214.538 117.589C215.071 116.739 215.827 116.314 216.806 116.314C217.122 116.314 217.362 116.355 217.526 116.438V117.949ZM224.549 126C224.455 125.812 224.379 125.479 224.32 124.998C223.564 125.783 222.662 126.176 221.613 126.176C220.676 126.176 219.905 125.912 219.302 125.385C218.704 124.852 218.405 124.178 218.405 123.363C218.405 122.373 218.78 121.605 219.53 121.061C220.286 120.51 221.347 120.234 222.712 120.234H224.294V119.487C224.294 118.919 224.124 118.468 223.784 118.134C223.444 117.794 222.943 117.624 222.281 117.624C221.701 117.624 221.215 117.771 220.822 118.063C220.43 118.356 220.233 118.711 220.233 119.127H218.599C218.599 118.652 218.766 118.195 219.1 117.756C219.439 117.311 219.896 116.959 220.471 116.701C221.051 116.443 221.687 116.314 222.378 116.314C223.474 116.314 224.332 116.59 224.953 117.141C225.574 117.686 225.896 118.438 225.92 119.399V123.776C225.92 124.649 226.031 125.344 226.254 125.859V126H224.549ZM221.851 124.761C222.36 124.761 222.844 124.629 223.301 124.365C223.758 124.102 224.089 123.759 224.294 123.337V121.386H223.02C221.027 121.386 220.031 121.969 220.031 123.135C220.031 123.645 220.201 124.043 220.541 124.33C220.881 124.617 221.317 124.761 221.851 124.761ZM229.998 116.49L230.042 117.545C230.739 116.725 231.68 116.314 232.863 116.314C234.193 116.314 235.099 116.824 235.579 117.844C235.896 117.387 236.306 117.018 236.81 116.736C237.319 116.455 237.92 116.314 238.611 116.314C240.697 116.314 241.758 117.419 241.793 119.628V126H240.167V119.725C240.167 119.045 240.012 118.538 239.701 118.204C239.391 117.864 238.869 117.694 238.137 117.694C237.533 117.694 237.032 117.876 236.634 118.239C236.235 118.597 236.004 119.08 235.939 119.689V126H234.305V119.769C234.305 118.386 233.628 117.694 232.274 117.694C231.208 117.694 230.479 118.148 230.086 119.057V126H228.46V116.49H229.998ZM250.125 126C250.031 125.812 249.955 125.479 249.896 124.998C249.141 125.783 248.238 126.176 247.189 126.176C246.252 126.176 245.481 125.912 244.878 125.385C244.28 124.852 243.981 124.178 243.981 123.363C243.981 122.373 244.356 121.605 245.106 121.061C245.862 120.51 246.923 120.234 248.288 120.234H249.87V119.487C249.87 118.919 249.7 118.468 249.36 118.134C249.021 117.794 248.52 117.624 247.857 117.624C247.277 117.624 246.791 117.771 246.398 118.063C246.006 118.356 245.81 118.711 245.81 119.127H244.175C244.175 118.652 244.342 118.195 244.676 117.756C245.016 117.311 245.473 116.959 246.047 116.701C246.627 116.443 247.263 116.314 247.954 116.314C249.05 116.314 249.908 116.59 250.529 117.141C251.15 117.686 251.473 118.438 251.496 119.399V123.776C251.496 124.649 251.607 125.344 251.83 125.859V126H250.125ZM247.427 124.761C247.937 124.761 248.42 124.629 248.877 124.365C249.334 124.102 249.665 123.759 249.87 123.337V121.386H248.596C246.604 121.386 245.607 121.969 245.607 123.135C245.607 123.645 245.777 124.043 246.117 124.33C246.457 124.617 246.894 124.761 247.427 124.761Z" fill="white"/>
<path d="M293.333 67H291.698V56.1631L288.42 57.3672V55.8906L293.078 54.1416H293.333V67ZM306.754 61.2959C305.307 60.8799 304.252 60.3701 303.59 59.7666C302.934 59.1572 302.605 58.4072 302.605 57.5166C302.605 56.5088 303.007 55.6768 303.81 55.0205C304.618 54.3584 305.667 54.0273 306.956 54.0273C307.835 54.0273 308.617 54.1973 309.303 54.5371C309.994 54.877 310.527 55.3457 310.902 55.9434C311.283 56.541 311.474 57.1943 311.474 57.9033H309.777C309.777 57.1299 309.531 56.5234 309.039 56.084C308.547 55.6387 307.853 55.416 306.956 55.416C306.124 55.416 305.474 55.6006 305.005 55.9697C304.542 56.333 304.311 56.8398 304.311 57.4902C304.311 58.0117 304.53 58.4541 304.97 58.8174C305.415 59.1748 306.168 59.5029 307.229 59.8018C308.295 60.1006 309.127 60.4316 309.725 60.7949C310.328 61.1523 310.773 61.5713 311.061 62.0518C311.354 62.5322 311.5 63.0977 311.5 63.748C311.5 64.7852 311.096 65.6172 310.287 66.2441C309.479 66.8652 308.397 67.1758 307.044 67.1758C306.165 67.1758 305.345 67.0088 304.583 66.6748C303.821 66.335 303.232 65.8721 302.816 65.2861C302.406 64.7002 302.201 64.0352 302.201 63.291H303.897C303.897 64.0645 304.182 64.6768 304.75 65.1279C305.324 65.5732 306.089 65.7959 307.044 65.7959C307.935 65.7959 308.617 65.6143 309.092 65.251C309.566 64.8877 309.804 64.3926 309.804 63.7656C309.804 63.1387 309.584 62.6553 309.145 62.3154C308.705 61.9697 307.908 61.6299 306.754 61.2959ZM317.362 67.1758C316.073 67.1758 315.024 66.7539 314.216 65.9102C313.407 65.0605 313.003 63.9268 313.003 62.5088V62.21C313.003 61.2666 313.182 60.4258 313.539 59.6875C313.902 58.9434 314.406 58.3633 315.051 57.9473C315.701 57.5254 316.404 57.3145 317.16 57.3145C318.396 57.3145 319.357 57.7217 320.043 58.5361C320.729 59.3506 321.071 60.5166 321.071 62.0342V62.7109H314.629C314.652 63.6484 314.925 64.4072 315.446 64.9873C315.974 65.5615 316.642 65.8486 317.45 65.8486C318.024 65.8486 318.511 65.7314 318.909 65.4971C319.308 65.2627 319.656 64.9521 319.955 64.5654L320.948 65.3389C320.151 66.5635 318.956 67.1758 317.362 67.1758ZM317.16 58.6504C316.504 58.6504 315.953 58.8906 315.508 59.3711C315.062 59.8457 314.787 60.5137 314.682 61.375H319.445V61.252C319.398 60.4258 319.176 59.7871 318.777 59.3359C318.379 58.8789 317.84 58.6504 317.16 58.6504ZM328.832 67C328.738 66.8125 328.662 66.4785 328.604 65.998C327.848 66.7832 326.945 67.1758 325.896 67.1758C324.959 67.1758 324.188 66.9121 323.585 66.3848C322.987 65.8516 322.688 65.1777 322.688 64.3633C322.688 63.373 323.063 62.6055 323.813 62.0605C324.569 61.5098 325.63 61.2344 326.995 61.2344H328.577V60.4873C328.577 59.9189 328.407 59.4678 328.067 59.1338C327.728 58.7939 327.227 58.624 326.564 58.624C325.984 58.624 325.498 58.7705 325.105 59.0635C324.713 59.3564 324.517 59.7109 324.517 60.127H322.882C322.882 59.6523 323.049 59.1953 323.383 58.7559C323.723 58.3105 324.18 57.959 324.754 57.7012C325.334 57.4434 325.97 57.3145 326.661 57.3145C327.757 57.3145 328.615 57.5898 329.236 58.1406C329.857 58.6855 330.18 59.4385 330.203 60.3994V64.7764C330.203 65.6494 330.314 66.3438 330.537 66.8594V67H328.832ZM326.134 65.7607C326.644 65.7607 327.127 65.6289 327.584 65.3652C328.041 65.1016 328.372 64.7588 328.577 64.3369V62.3857H327.303C325.311 62.3857 324.314 62.9688 324.314 64.1348C324.314 64.6445 324.484 65.043 324.824 65.3301C325.164 65.6172 325.601 65.7607 326.134 65.7607ZM338.289 64.4775C338.289 64.0381 338.122 63.6982 337.788 63.458C337.46 63.2119 336.883 63.001 336.057 62.8252C335.236 62.6494 334.583 62.4385 334.097 62.1924C333.616 61.9463 333.259 61.6533 333.024 61.3135C332.796 60.9736 332.682 60.5693 332.682 60.1006C332.682 59.3213 333.01 58.6621 333.666 58.123C334.328 57.584 335.172 57.3145 336.197 57.3145C337.275 57.3145 338.148 57.5928 338.816 58.1494C339.49 58.7061 339.827 59.418 339.827 60.2852H338.192C338.192 59.8398 338.002 59.4561 337.621 59.1338C337.246 58.8115 336.771 58.6504 336.197 58.6504C335.605 58.6504 335.143 58.7793 334.809 59.0371C334.475 59.2949 334.308 59.6318 334.308 60.0479C334.308 60.4404 334.463 60.7363 334.773 60.9355C335.084 61.1348 335.644 61.3252 336.452 61.5068C337.267 61.6885 337.926 61.9053 338.43 62.1572C338.934 62.4092 339.306 62.7139 339.546 63.0713C339.792 63.4229 339.915 63.8535 339.915 64.3633C339.915 65.2129 339.575 65.8955 338.896 66.4111C338.216 66.9209 337.334 67.1758 336.25 67.1758C335.488 67.1758 334.814 67.041 334.229 66.7715C333.643 66.502 333.183 66.127 332.849 65.6465C332.521 65.1602 332.356 64.6357 332.356 64.0732H333.982C334.012 64.6182 334.229 65.0518 334.633 65.374C335.043 65.6904 335.582 65.8486 336.25 65.8486C336.865 65.8486 337.357 65.7256 337.727 65.4795C338.102 65.2275 338.289 64.8936 338.289 64.4775ZM341.603 62.1572C341.603 61.2256 341.784 60.3877 342.147 59.6436C342.517 58.8994 343.026 58.3252 343.677 57.9209C344.333 57.5166 345.08 57.3145 345.918 57.3145C347.213 57.3145 348.259 57.7627 349.056 58.6592C349.858 59.5557 350.26 60.748 350.26 62.2363V62.3506C350.26 63.2764 350.081 64.1084 349.724 64.8467C349.372 65.5791 348.865 66.1504 348.203 66.5605C347.547 66.9707 346.791 67.1758 345.936 67.1758C344.646 67.1758 343.601 66.7275 342.798 65.8311C342.001 64.9346 341.603 63.748 341.603 62.2715V62.1572ZM343.237 62.3506C343.237 63.4053 343.48 64.252 343.967 64.8906C344.459 65.5293 345.115 65.8486 345.936 65.8486C346.762 65.8486 347.418 65.5264 347.904 64.8818C348.391 64.2314 348.634 63.3232 348.634 62.1572C348.634 61.1143 348.385 60.2705 347.887 59.626C347.395 58.9756 346.738 58.6504 345.918 58.6504C345.115 58.6504 344.468 58.9697 343.976 59.6084C343.483 60.2471 343.237 61.1611 343.237 62.3506ZM353.837 57.4902L353.89 58.6855C354.616 57.7715 355.565 57.3145 356.737 57.3145C358.747 57.3145 359.761 58.4482 359.778 60.7158V67H358.152V60.707C358.146 60.0215 357.988 59.5146 357.678 59.1865C357.373 58.8584 356.896 58.6943 356.245 58.6943C355.718 58.6943 355.255 58.835 354.856 59.1162C354.458 59.3975 354.147 59.7666 353.925 60.2236V67H352.299V57.4902H353.837ZM269.479 88H267.845V77.1631L264.566 78.3672V76.8906L269.225 75.1416H269.479V88ZM274.99 81.584L275.641 75.2031H282.197V76.7061H277.021L276.634 80.1953C277.261 79.8262 277.973 79.6416 278.77 79.6416C279.936 79.6416 280.861 80.0283 281.547 80.8018C282.232 81.5693 282.575 82.6094 282.575 83.9219C282.575 85.2402 282.218 86.2803 281.503 87.042C280.794 87.7979 279.801 88.1758 278.523 88.1758C277.393 88.1758 276.47 87.8623 275.755 87.2354C275.04 86.6084 274.633 85.7412 274.533 84.6338H276.071C276.171 85.3662 276.432 85.9199 276.854 86.2949C277.275 86.6641 277.832 86.8486 278.523 86.8486C279.279 86.8486 279.871 86.5908 280.299 86.0752C280.732 85.5596 280.949 84.8477 280.949 83.9395C280.949 83.084 280.715 82.3984 280.246 81.8828C279.783 81.3613 279.165 81.1006 278.392 81.1006C277.683 81.1006 277.126 81.2559 276.722 81.5664L276.291 81.918L274.99 81.584ZM296.471 82.085H290.925V86.6201H297.367V88H289.237V75.2031H297.279V76.5918H290.925V80.7051H296.471V82.085ZM307.246 83.3506C307.246 84.7979 306.915 85.9639 306.253 86.8486C305.591 87.7334 304.694 88.1758 303.563 88.1758C302.409 88.1758 301.501 87.8096 300.839 87.0771V91.6562H299.213V78.4902H300.698L300.777 79.5449C301.439 78.7246 302.359 78.3145 303.537 78.3145C304.68 78.3145 305.582 78.7451 306.244 79.6064C306.912 80.4678 307.246 81.666 307.246 83.2012V83.3506ZM305.62 83.166C305.62 82.0938 305.392 81.2471 304.935 80.626C304.478 80.0049 303.851 79.6943 303.054 79.6943C302.069 79.6943 301.331 80.1309 300.839 81.0039V85.5479C301.325 86.415 302.069 86.8486 303.071 86.8486C303.851 86.8486 304.469 86.541 304.926 85.9258C305.389 85.3047 305.62 84.3848 305.62 83.166ZM311.087 88H309.461V78.4902H311.087V88ZM309.329 75.9678C309.329 75.7041 309.408 75.4814 309.566 75.2998C309.73 75.1182 309.971 75.0273 310.287 75.0273C310.604 75.0273 310.844 75.1182 311.008 75.2998C311.172 75.4814 311.254 75.7041 311.254 75.9678C311.254 76.2314 311.172 76.4512 311.008 76.627C310.844 76.8027 310.604 76.8906 310.287 76.8906C309.971 76.8906 309.73 76.8027 309.566 76.627C309.408 76.4512 309.329 76.2314 309.329 75.9678ZM319.234 85.4775C319.234 85.0381 319.067 84.6982 318.733 84.458C318.405 84.2119 317.828 84.001 317.002 83.8252C316.182 83.6494 315.528 83.4385 315.042 83.1924C314.562 82.9463 314.204 82.6533 313.97 82.3135C313.741 81.9736 313.627 81.5693 313.627 81.1006C313.627 80.3213 313.955 79.6621 314.611 79.123C315.273 78.584 316.117 78.3145 317.143 78.3145C318.221 78.3145 319.094 78.5928 319.762 79.1494C320.436 79.7061 320.772 80.418 320.772 81.2852H319.138C319.138 80.8398 318.947 80.4561 318.566 80.1338C318.191 79.8115 317.717 79.6504 317.143 79.6504C316.551 79.6504 316.088 79.7793 315.754 80.0371C315.42 80.2949 315.253 80.6318 315.253 81.0479C315.253 81.4404 315.408 81.7363 315.719 81.9355C316.029 82.1348 316.589 82.3252 317.397 82.5068C318.212 82.6885 318.871 82.9053 319.375 83.1572C319.879 83.4092 320.251 83.7139 320.491 84.0713C320.737 84.4229 320.86 84.8535 320.86 85.3633C320.86 86.2129 320.521 86.8955 319.841 87.4111C319.161 87.9209 318.279 88.1758 317.195 88.1758C316.434 88.1758 315.76 88.041 315.174 87.7715C314.588 87.502 314.128 87.127 313.794 86.6465C313.466 86.1602 313.302 85.6357 313.302 85.0732H314.928C314.957 85.6182 315.174 86.0518 315.578 86.374C315.988 86.6904 316.527 86.8486 317.195 86.8486C317.811 86.8486 318.303 86.7256 318.672 86.4795C319.047 86.2275 319.234 85.8936 319.234 85.4775ZM322.548 83.1572C322.548 82.2256 322.729 81.3877 323.093 80.6436C323.462 79.8994 323.972 79.3252 324.622 78.9209C325.278 78.5166 326.025 78.3145 326.863 78.3145C328.158 78.3145 329.204 78.7627 330.001 79.6592C330.804 80.5557 331.205 81.748 331.205 83.2363V83.3506C331.205 84.2764 331.026 85.1084 330.669 85.8467C330.317 86.5791 329.811 87.1504 329.148 87.5605C328.492 87.9707 327.736 88.1758 326.881 88.1758C325.592 88.1758 324.546 87.7275 323.743 86.8311C322.946 85.9346 322.548 84.748 322.548 83.2715V83.1572ZM324.183 83.3506C324.183 84.4053 324.426 85.252 324.912 85.8906C325.404 86.5293 326.061 86.8486 326.881 86.8486C327.707 86.8486 328.363 86.5264 328.85 85.8818C329.336 85.2314 329.579 84.3232 329.579 83.1572C329.579 82.1143 329.33 81.2705 328.832 80.626C328.34 79.9756 327.684 79.6504 326.863 79.6504C326.061 79.6504 325.413 79.9697 324.921 80.6084C324.429 81.2471 324.183 82.1611 324.183 83.3506ZM332.849 83.166C332.849 81.707 333.194 80.5352 333.886 79.6504C334.577 78.7598 335.482 78.3145 336.602 78.3145C337.715 78.3145 338.597 78.6953 339.247 79.457V74.5H340.873V88H339.379L339.3 86.9805C338.649 87.7773 337.744 88.1758 336.584 88.1758C335.482 88.1758 334.583 87.7246 333.886 86.8223C333.194 85.9199 332.849 84.7422 332.849 83.2891V83.166ZM334.475 83.3506C334.475 84.4287 334.697 85.2725 335.143 85.8818C335.588 86.4912 336.203 86.7959 336.988 86.7959C338.02 86.7959 338.772 86.333 339.247 85.4072V81.0391C338.761 80.1426 338.014 79.6943 337.006 79.6943C336.209 79.6943 335.588 80.002 335.143 80.6172C334.697 81.2324 334.475 82.1436 334.475 83.3506ZM347.351 88.1758C346.062 88.1758 345.013 87.7539 344.204 86.9102C343.396 86.0605 342.991 84.9268 342.991 83.5088V83.21C342.991 82.2666 343.17 81.4258 343.527 80.6875C343.891 79.9434 344.395 79.3633 345.039 78.9473C345.689 78.5254 346.393 78.3145 347.148 78.3145C348.385 78.3145 349.346 78.7217 350.031 79.5361C350.717 80.3506 351.06 81.5166 351.06 83.0342V83.7109H344.617C344.641 84.6484 344.913 85.4072 345.435 85.9873C345.962 86.5615 346.63 86.8486 347.438 86.8486C348.013 86.8486 348.499 86.7314 348.897 86.4971C349.296 86.2627 349.645 85.9521 349.943 85.5654L350.937 86.3389C350.14 87.5635 348.944 88.1758 347.351 88.1758ZM347.148 79.6504C346.492 79.6504 345.941 79.8906 345.496 80.3711C345.051 80.8457 344.775 81.5137 344.67 82.375H349.434V82.252C349.387 81.4258 349.164 80.7871 348.766 80.3359C348.367 79.8789 347.828 79.6504 347.148 79.6504ZM358.486 85.4775C358.486 85.0381 358.319 84.6982 357.985 84.458C357.657 84.2119 357.08 84.001 356.254 83.8252C355.434 83.6494 354.78 83.4385 354.294 83.1924C353.813 82.9463 353.456 82.6533 353.222 82.3135C352.993 81.9736 352.879 81.5693 352.879 81.1006C352.879 80.3213 353.207 79.6621 353.863 79.123C354.525 78.584 355.369 78.3145 356.395 78.3145C357.473 78.3145 358.346 78.5928 359.014 79.1494C359.688 79.7061 360.024 80.418 360.024 81.2852H358.39C358.39 80.8398 358.199 80.4561 357.818 80.1338C357.443 79.8115 356.969 79.6504 356.395 79.6504C355.803 79.6504 355.34 79.7793 355.006 80.0371C354.672 80.2949 354.505 80.6318 354.505 81.0479C354.505 81.4404 354.66 81.7363 354.971 81.9355C355.281 82.1348 355.841 82.3252 356.649 82.5068C357.464 82.6885 358.123 82.9053 358.627 83.1572C359.131 83.4092 359.503 83.7139 359.743 84.0713C359.989 84.4229 360.112 84.8535 360.112 85.3633C360.112 86.2129 359.772 86.8955 359.093 87.4111C358.413 87.9209 357.531 88.1758 356.447 88.1758C355.686 88.1758 355.012 88.041 354.426 87.7715C353.84 87.502 353.38 87.127 353.046 86.6465C352.718 86.1602 352.554 85.6357 352.554 85.0732H354.18C354.209 85.6182 354.426 86.0518 354.83 86.374C355.24 86.6904 355.779 86.8486 356.447 86.8486C357.062 86.8486 357.555 86.7256 357.924 86.4795C358.299 86.2275 358.486 85.8936 358.486 85.4775Z" fill="white"/>
<path d="M70.0773 58.0315C70.0227 57.8695 69.9221 57.7272 69.788 57.6221C69.6539 57.517 69.4922 57.4537 69.3228 57.44L64.3672 57.0436L62.2227 52.2653C62.1544 52.1114 62.0433 51.9806 61.9029 51.8889C61.7624 51.7971 61.5986 51.7483 61.4311 51.7482C61.2637 51.7481 61.0998 51.7968 60.9592 51.8884C60.8186 51.98 60.7074 52.1106 60.6389 52.2644L58.4945 57.0436L53.5389 57.44C53.3724 57.4533 53.2132 57.5146 53.0804 57.6165C52.9476 57.7185 52.8468 57.8568 52.79 58.0149C52.7333 58.173 52.723 58.3443 52.7603 58.5081C52.7977 58.672 52.8812 58.8215 53.0008 58.9389L56.663 62.5325L55.3678 68.178C55.3285 68.3489 55.3411 68.5277 55.404 68.6913C55.4669 68.8549 55.5772 68.9957 55.7205 69.0954C55.8639 69.1951 56.0337 69.2491 56.208 69.2505C56.3823 69.2518 56.5529 69.2004 56.6978 69.1029L61.4308 65.9266L66.1639 69.1029C66.312 69.2019 66.4866 69.2528 66.6643 69.2489C66.842 69.2449 67.0142 69.1863 67.1578 69.081C67.3014 68.9756 67.4095 68.8284 67.4676 68.6593C67.5257 68.4902 67.5309 68.3073 67.4826 68.1351L65.8927 62.5351L69.8356 58.9634C70.0938 58.7289 70.1886 58.3631 70.0773 58.0315Z" fill="#E4B71E"/>
<path d="M95.1115 58.0315C95.0568 57.8695 94.9563 57.7272 94.8222 57.6221C94.6881 57.517 94.5264 57.4537 94.357 57.44L89.4014 57.0436L87.2569 52.2653C87.1886 52.1114 87.0775 51.9806 86.9371 51.8889C86.7966 51.7971 86.6327 51.7483 86.4653 51.7482C86.2978 51.7481 86.1339 51.7968 85.9934 51.8884C85.8528 51.98 85.7416 52.1106 85.6731 52.2644L83.5287 57.0436L78.5731 57.44C78.4066 57.4533 78.2474 57.5146 78.1146 57.6165C77.9818 57.7185 77.881 57.8568 77.8242 58.0149C77.7674 58.173 77.7571 58.3443 77.7945 58.5081C77.8319 58.672 77.9154 58.8215 78.035 58.9389L81.6972 62.5325L80.402 68.178C80.3626 68.3489 80.3753 68.5277 80.4382 68.6913C80.5011 68.8549 80.6113 68.9957 80.7547 69.0954C80.8981 69.1951 81.0679 69.2491 81.2422 69.2505C81.4164 69.2518 81.5871 69.2004 81.7319 69.1029L86.465 65.9266L91.1981 69.1029C91.3462 69.2019 91.5208 69.2528 91.6985 69.2489C91.8762 69.2449 92.0484 69.1863 92.192 69.081C92.3356 68.9756 92.4437 68.8284 92.5018 68.6593C92.5598 68.4902 92.5651 68.3073 92.5168 68.1351L90.9269 62.5351L94.8698 58.9634C95.128 58.7289 95.2227 58.3631 95.1115 58.0315Z" fill="#E4B71E"/>
<path d="M120.147 58.0315C120.092 57.8695 119.991 57.7272 119.857 57.6221C119.723 57.517 119.562 57.4537 119.392 57.44L114.437 57.0436L112.292 52.2653C112.224 52.1114 112.113 51.9806 111.972 51.8889C111.832 51.7971 111.668 51.7483 111.5 51.7482C111.333 51.7481 111.169 51.7968 111.029 51.8884C110.888 51.98 110.777 52.1106 110.708 52.2644L108.564 57.0436L103.608 57.44C103.442 57.4533 103.283 57.5146 103.15 57.6165C103.017 57.7185 102.916 57.8568 102.859 58.0149C102.803 58.173 102.792 58.3443 102.83 58.5081C102.867 58.672 102.951 58.8215 103.07 58.9389L106.732 62.5325L105.437 68.178C105.398 68.3489 105.41 68.5277 105.473 68.6913C105.536 68.8549 105.647 68.9957 105.79 69.0954C105.933 69.1951 106.103 69.2491 106.277 69.2505C106.452 69.2518 106.622 69.2004 106.767 69.1029L111.5 65.9266L116.233 69.1029C116.381 69.2019 116.556 69.2528 116.734 69.2489C116.911 69.2449 117.084 69.1863 117.227 69.081C117.371 68.9756 117.479 68.8284 117.537 68.6593C117.595 68.4902 117.6 68.3073 117.552 68.1351L115.962 62.5351L119.905 58.9634C120.163 58.7289 120.258 58.3631 120.147 58.0315Z" fill="#E4B71E"/>
<path d="M145.181 58.0315C145.126 57.8695 145.026 57.7272 144.892 57.6221C144.757 57.517 144.596 57.4537 144.426 57.44L139.471 57.0436L137.326 52.2653C137.258 52.1114 137.147 51.9806 137.006 51.8889C136.866 51.7971 136.702 51.7483 136.535 51.7482C136.367 51.7481 136.203 51.7968 136.063 51.8884C135.922 51.98 135.811 52.1106 135.742 52.2644L133.598 57.0436L128.642 57.44C128.476 57.4533 128.317 57.5146 128.184 57.6165C128.051 57.7185 127.95 57.8568 127.894 58.0149C127.837 58.173 127.826 58.3443 127.864 58.5081C127.901 58.672 127.985 58.8215 128.104 58.9389L131.766 62.5325L130.471 68.178C130.432 68.3489 130.445 68.5277 130.507 68.6913C130.57 68.8549 130.681 68.9957 130.824 69.0954C130.967 69.1951 131.137 69.2491 131.312 69.2505C131.486 69.2518 131.656 69.2004 131.801 69.1029L136.534 65.9266L141.267 69.1029C141.415 69.2019 141.59 69.2528 141.768 69.2489C141.945 69.2449 142.118 69.1863 142.261 69.081C142.405 68.9756 142.513 68.8284 142.571 68.6593C142.629 68.4902 142.634 68.3073 142.586 68.1351L140.996 62.5351L144.939 58.9634C145.197 58.7289 145.292 58.3631 145.181 58.0315Z" fill="#E4B71E"/>
<path d="M164.049 57.2484L164.17 57.5184L164.465 57.542L169.42 57.9384C169.492 57.9441 169.56 57.9708 169.617 58.0156C169.674 58.0603 169.717 58.1212 169.741 58.191C169.789 58.3353 169.748 58.4929 169.637 58.5933L165.695 62.1646L165.465 62.373L165.549 62.6717L167.139 68.2702C167.139 68.2704 167.139 68.2706 167.139 68.2707C167.16 68.3451 167.157 68.424 167.132 68.497C167.107 68.57 167.061 68.633 167 68.6779C166.939 68.7227 166.866 68.7473 166.791 68.749C166.716 68.7506 166.642 68.7292 166.58 68.6873C166.58 68.6872 166.579 68.6872 166.579 68.6872L161.847 65.5115L161.569 65.3245L161.29 65.5115L156.557 68.6877L156.556 68.6881C156.495 68.7294 156.423 68.751 156.35 68.7505C156.276 68.7499 156.205 68.7272 156.144 68.6849C156.083 68.6426 156.035 68.5824 156.008 68.5119C155.981 68.4413 155.976 68.364 155.993 68.2902L155.993 68.2898L157.288 62.6443L157.351 62.3716L157.151 62.1756L153.489 58.582L153.489 58.582C153.438 58.5319 153.402 58.4677 153.386 58.3969C153.369 58.3261 153.374 58.2521 153.398 58.1839C153.423 58.1157 153.466 58.0565 153.523 58.0131C153.579 57.9698 153.646 57.944 153.716 57.9384L153.716 57.9384L158.672 57.542L158.967 57.5184L159.088 57.2483L161.233 52.4691L161.233 52.4677C161.263 52.4016 161.31 52.346 161.37 52.3073C161.429 52.2685 161.498 52.2481 161.569 52.2482C161.639 52.2482 161.708 52.2687 161.767 52.3075C161.827 52.3463 161.874 52.402 161.903 52.4681L161.904 52.47L164.049 57.2484Z" stroke="white"/>
<defs>
<filter id="filter0_f" x="0" y="0" width="415" height="296" filterUnits="userSpaceOnUse" color-interpolation-filters="sRGB">
<feFlood flood-opacity="0" result="BackgroundImageFix"/>
<feBlend mode="normal" in="SourceGraphic" in2="BackgroundImageFix" result="shape"/>
<feGaussianBlur stdDeviation="25" result="effect1_foregroundBlur"/>
</filter>
</defs>
</svg>
