<svg width="91" height="91" viewBox="0 0 91 91" fill="none" xmlns="http://www.w3.org/2000/svg">
<path d="M88.8643 45.1423C88.8643 69.2297 69.3144 88.7595 45.1947 88.7595C21.0749 88.7595 1.52508 69.2297 1.52508 45.1423C1.52508 21.0548 21.0749 1.52508 45.1947 1.52508C69.3144 1.52508 88.8643 21.0548 88.8643 45.1423Z" fill="#B42F00" stroke="#EE490E" stroke-width="3.05015"/>
<path fill-rule="evenodd" clip-rule="evenodd" d="M58.2897 88.4059C76.9422 82.8463 90.5404 65.5805 90.5404 45.1423C90.5404 20.2109 70.3061 0 45.3457 0C38.8168 0 32.6113 1.38282 27.0066 3.87125L58.2897 88.4059Z" fill="#E2430B"/>
<g clip-path="url(#clip0)">
<path d="M66.0736 24.7683C65.7118 24.4918 65.2356 24.3958 64.7718 24.4831L36.9416 30.3038C36.2335 30.4522 35.7294 31.043 35.7294 31.724V54.7449C34.4338 54.0056 32.8382 53.5516 31.0911 53.5516C26.83 53.5516 23.3605 56.1622 23.3605 59.3723C23.3605 62.5824 26.83 65.193 31.0911 65.193C35.3522 65.193 38.8217 62.5824 38.8217 59.3723V41.6221L63.5596 36.4475V48.9242C62.264 48.1849 60.6684 47.7309 58.9213 47.7309C54.6571 47.7309 51.1907 50.3415 51.1907 53.5516C51.1907 56.7617 54.6571 59.3723 58.9213 59.3723C63.1855 59.3723 66.6519 56.7617 66.6519 53.5516V25.9033C66.6519 25.4609 66.4416 25.0448 66.0736 24.7683Z" fill="white"/>
</g>
<defs>
<clipPath id="clip0">
<rect width="43.2914" height="40.7449" fill="white" transform="translate(23.3604 24.447)"/>
</clipPath>
</defs>
</svg>
