<svg width="91" height="91" viewBox="0 0 91 91" fill="none" xmlns="http://www.w3.org/2000/svg">
<path d="M88.8643 45.1423C88.8643 69.2297 69.3144 88.7595 45.1947 88.7595C21.0749 88.7595 1.52508 69.2297 1.52508 45.1423C1.52508 21.0548 21.0749 1.52508 45.1947 1.52508C69.3144 1.52508 88.8643 21.0548 88.8643 45.1423Z" fill="#B42F00" stroke="#EE490E" stroke-width="3.05015"/>
<path fill-rule="evenodd" clip-rule="evenodd" d="M58.2896 88.4059C76.9421 82.8463 90.5403 65.5805 90.5403 45.1423C90.5403 20.2109 70.306 0 45.3457 0C38.8168 0 32.6112 1.38282 27.0065 3.87125L58.2896 88.4059Z" fill="#E2430B"/>
<g clip-path="url(#clip0)">
<path d="M51.1684 51.0585C49.1047 51.255 46.8723 48.7273 44.5387 48.7273C42.0423 48.7273 39.6593 51.2381 37.4763 51.0139C31.4999 50.4028 27.0207 49.0383 25.8189 47.3809C26.1612 49.8447 26.7808 52.1747 27.6113 54.3336C27.8247 54.5481 28.0368 54.7591 28.2586 54.9797C28.8782 55.6655 29.6955 56.2128 30.4344 56.8842C31.2649 57.4459 32.0821 58.0824 33.0139 58.5718C33.9011 59.1371 34.8931 59.5373 35.8574 59.9869C36.8615 60.3389 37.85 60.7487 38.8794 60.9657C39.8883 61.2646 40.9165 61.3839 41.9037 61.5635C42.9018 61.6009 43.8685 61.7805 44.7906 61.7263C45.2523 61.7215 45.7019 61.719 46.1371 61.7142C46.5698 61.6696 46.9881 61.6226 47.3895 61.5804C48.1983 61.5165 48.9239 61.3683 49.576 61.2453C49.9027 61.1851 50.2065 61.126 50.4897 61.0742C50.7658 60.9946 51.0177 60.9211 51.2467 60.8536C52.1713 60.598 52.7004 60.4522 52.7004 60.4522C52.7004 60.4522 52.2002 60.6788 51.3227 61.0766C51.1009 61.173 50.855 61.2791 50.5886 61.3948C50.3113 61.4816 50.0112 61.578 49.6906 61.6793C49.0493 61.8902 48.3212 62.1373 47.4955 62.2518C47.0845 62.3266 46.6578 62.4061 46.2154 62.4869C45.7658 62.5242 45.3017 62.5628 44.8244 62.605C43.8673 62.7316 42.8524 62.6388 41.8012 62.6219C40.7646 62.4664 39.6689 62.4085 38.6045 62.0963C37.5173 61.8794 36.4686 61.4683 35.4054 61.1031C34.3917 60.6185 33.3538 60.1798 32.4257 59.5722C31.4481 59.0491 30.6236 58.3271 29.775 57.7099C29.3869 57.3447 28.9939 56.9963 28.6215 56.6455C32.0219 63.5814 37.8705 68.1776 44.5399 68.1776C53.8697 68.1776 61.6192 59.2118 63.2597 47.3809C62.0278 49.0805 57.3593 50.4691 51.1684 51.0585Z" fill="white"/>
<path d="M50.996 48.015C53.3718 47.5605 53.32 47.0265 53.2995 46.8228C53.2416 46.2792 52.469 46.2792 52.0977 46.2792C51.706 46.2792 51.2395 46.3165 50.7477 46.3865C50.3222 46.4479 48.9059 46.6818 48.5358 47.1881C48.4442 47.3158 48.4068 47.4641 48.4297 47.6087C48.5213 48.1644 49.3097 48.1644 49.6074 48.1644C50.0028 48.1656 50.497 48.1114 50.996 48.015Z" fill="white"/>
<path d="M38.6165 48.1812C38.8805 48.1812 39.6809 48.1812 39.7761 47.6255C39.8014 47.4821 39.764 47.3314 39.6724 47.2024C39.3156 46.7034 38.0005 46.4611 37.6064 46.3996C37.1531 46.3273 36.7204 46.2899 36.354 46.2899C36.0237 46.2899 35.2474 46.2899 35.1739 46.836C35.1052 47.3483 35.8332 47.7533 37.334 48.0438C37.7968 48.1342 38.2404 48.1812 38.6165 48.1812Z" fill="white"/>
<path d="M68.6803 29.8809C68.6803 29.8809 68.5525 29.594 68.2355 29.1625C68.0788 28.9431 67.8727 28.6924 67.6171 28.4151C67.3664 28.1246 67.0494 27.8534 66.6721 27.6268C66.2984 27.3833 65.8753 27.141 65.4125 26.9132C64.952 26.6745 64.4277 26.589 63.8852 26.4745C63.7153 26.4491 63.5417 26.4359 63.3669 26.419C63.7551 26.2695 64.1323 26.1237 64.4783 25.9537C64.8508 25.7946 65.1991 25.6355 65.5113 25.4776C65.8235 25.3052 66.1044 25.1907 66.3382 25.0557C66.8071 24.8038 67.0868 24.5989 67.0868 24.5989L67.0964 24.5928C67.1145 24.5796 67.1301 24.5627 67.1434 24.5422C67.2049 24.4506 67.1796 24.3264 67.0868 24.2662C67.0868 24.2662 66.8083 24.0805 66.2936 23.8624C66.0369 23.7551 65.7198 23.6201 65.3534 23.5369C64.987 23.4537 64.5651 23.3597 64.1046 23.3055C63.6454 23.2741 63.1415 23.2524 62.6135 23.2886C62.0892 23.3465 61.5299 23.4091 60.9814 23.5984C60.4318 23.7828 59.8857 24.0396 59.3638 24.3698C58.8298 24.6627 58.326 25.0461 57.8077 25.3679C57.7136 25.4378 57.6208 25.5077 57.5268 25.5764C57.9788 25.9827 58.4103 26.4142 58.8298 26.865C59.0396 27.0964 59.2457 27.3327 59.4494 27.5738C59.9111 28.1186 60.3414 28.6924 60.7488 29.289C61.1538 29.3638 61.5588 29.447 61.947 29.5374C62.4183 29.6217 62.8534 29.8001 63.2862 29.8917C63.7153 29.9846 64.1613 29.9749 64.5627 30.0328C64.9629 30.0943 65.357 30.1244 65.7379 30.1316C65.9272 30.1401 66.1164 30.1328 66.2984 30.1268C66.4732 30.1376 66.6263 30.175 66.7902 30.1762C67.106 30.1979 67.4002 30.2088 67.6545 30.2039C68.1608 30.2015 68.5019 30.1605 68.5019 30.1605L68.526 30.1581C68.5453 30.1557 68.5634 30.1509 68.5826 30.1425C68.6803 30.0979 68.7249 29.9809 68.6803 29.8809Z" fill="white"/>
<path d="M59.4145 31.1309C58.5273 30.5656 57.5341 30.1654 56.571 29.7158C55.5669 29.3638 54.5784 28.954 53.5478 28.7382C52.5401 28.4393 51.5119 28.32 50.5247 28.1391C49.5266 28.1018 48.5587 27.9234 47.6366 27.9776C47.1749 27.9812 46.7253 27.9849 46.2901 27.9885C45.8586 28.0343 45.4391 28.0801 45.0377 28.1223C44.2289 28.1862 43.5021 28.3356 42.8511 28.4586C42.5245 28.5188 42.2195 28.5767 41.9374 28.6285C41.6626 28.7093 41.4095 28.7828 41.1805 28.8491C40.2559 29.1047 39.7267 29.2505 39.7267 29.2505C39.7267 29.2505 40.227 29.0239 41.1033 28.6273C41.3251 28.5321 41.571 28.426 41.8386 28.3103C42.1158 28.2223 42.416 28.1259 42.7366 28.0246C43.3779 27.8149 44.1047 27.5678 44.9317 27.4533C45.3427 27.3773 45.7706 27.299 46.213 27.2182C46.6626 27.1796 47.1267 27.1411 47.604 27.1001C48.5599 26.9735 49.5748 27.0663 50.6271 27.0844C51.6626 27.2387 52.7595 27.2966 53.8227 27.6088C54.9099 27.8257 55.9586 28.238 57.0218 28.602C57.6908 28.9226 58.3574 29.2409 59.0095 29.582C58.7841 29.2831 58.5731 28.9709 58.332 28.6864C58.1283 28.4453 57.9234 28.2091 57.7101 27.98C57.293 27.5292 56.8603 27.0989 56.4058 26.6915C53.1488 23.7623 49.0276 22.0001 44.5339 22.0001C34.0108 22.0001 25.4802 31.6059 25.4802 43.4561C25.4802 44.3614 25.5465 45.2473 25.6429 46.1236C26.8157 44.095 34.8184 42.5255 44.5375 42.5255C54.2566 42.5255 62.2604 44.095 63.4285 46.1212C63.5249 45.2449 63.5912 44.3589 63.5912 43.4537C63.5912 39.1577 62.4569 35.1666 60.5235 31.8144C60.1667 31.5745 59.8062 31.3359 59.4145 31.1309Z" fill="white"/>
</g>
<defs>
<clipPath id="clip0">
<rect width="46.1775" height="46.1775" fill="white" transform="translate(24 22)"/>
</clipPath>
</defs>
</svg>
