<svg width="91" height="91" viewBox="0 0 91 91" fill="none" xmlns="http://www.w3.org/2000/svg">
<path d="M88.8643 45.1423C88.8643 69.2297 69.3144 88.7595 45.1947 88.7595C21.0749 88.7595 1.52508 69.2297 1.52508 45.1423C1.52508 21.0548 21.0749 1.52508 45.1947 1.52508C69.3144 1.52508 88.8643 21.0548 88.8643 45.1423Z" fill="#B42F00" stroke="#EE490E" stroke-width="3.05015"/>
<path fill-rule="evenodd" clip-rule="evenodd" d="M58.2896 88.4059C76.9422 82.8463 90.5404 65.5805 90.5404 45.1423C90.5404 20.2109 70.306 0 45.3457 0C38.8168 0 32.6112 1.38283 27.0066 3.87125L58.2896 88.4059Z" fill="#E2430B"/>
<g clip-path="url(#clip0)">
<path d="M54.5335 30.3381H49.5708C49.564 30.3026 49.5572 30.267 49.5504 30.2314L57.4077 21.8643C57.8905 22.1607 58.5222 22.1218 58.9423 21.7034C59.4318 21.2122 59.4318 20.4162 58.9423 19.925C58.4494 19.4355 57.655 19.4355 57.1655 19.925C56.7455 20.3467 56.7065 20.9768 57.0029 21.4612L48.9051 29.0644C48.5257 28.7257 48.0396 28.5038 47.4959 28.5038H43.2226C42.6772 28.5038 42.1911 28.7257 41.8117 29.0644L33.7139 21.4612C34.0103 20.9768 33.973 20.3467 33.553 19.925C33.0618 19.4355 32.2657 19.4355 31.7762 19.925C31.2851 20.4162 31.2851 21.2122 31.7762 21.7034C32.1963 22.1218 32.8264 22.1607 33.3108 21.8643L41.1681 30.2314C41.1613 30.267 41.1528 30.3043 41.1461 30.3381H36.1834C31.136 30.3381 27.0083 34.4675 27.0083 39.5148V57.8666C27.0083 62.4973 30.4958 66.3133 34.9673 66.9197L33.8358 70.7306C33.6936 71.2133 33.8596 71.3115 34.2068 70.9457L37.9042 67.0433H52.8177L56.5168 70.9457C56.864 71.3115 57.03 71.2133 56.8878 70.7306L55.7563 66.9197C60.2295 66.3167 63.7153 62.5007 63.7153 57.8666V39.5148C63.7102 34.4675 59.5808 30.3381 54.5335 30.3381ZM45.3584 66.2405C44.5319 66.2405 43.8628 65.5697 43.8628 64.7432C43.8628 63.9166 44.5336 63.2459 45.3584 63.2459C46.1833 63.2459 46.854 63.9166 46.854 64.7432C46.854 65.5697 46.185 66.2405 45.3584 66.2405ZM60.9578 54.6552C60.9578 58.9421 57.4467 62.4532 53.1598 62.4532H37.5604C33.2718 62.4532 29.7607 58.9421 29.7607 54.6552V40.8902C29.7607 36.6016 33.2718 33.0922 37.5604 33.0922H53.1598C57.4467 33.0922 60.9578 36.6016 60.9578 40.8902V54.6552Z" fill="white"/>
<path d="M36.4984 46.5185H39.2033V52.9819H41.8557V46.5185H44.5589V44.3997H36.4984V46.5185Z" fill="white"/>
<path d="M49.6199 50.5734L47.689 44.3997H44.9163L48.1581 52.9819H51.0324L54.2184 44.3997H51.5287L49.6199 50.5734Z" fill="white"/>
</g>
<defs>
<clipPath id="clip0">
<rect width="51.6101" height="51.6101" fill="white" transform="translate(19.5575 19.5576)"/>
</clipPath>
</defs>
</svg>
