<svg width="91" height="91" viewBox="0 0 91 91" fill="none" xmlns="http://www.w3.org/2000/svg">
<path d="M88.8643 45.1423C88.8643 69.2297 69.3144 88.7595 45.1947 88.7595C21.0749 88.7595 1.52508 69.2297 1.52508 45.1423C1.52508 21.0548 21.0749 1.52508 45.1947 1.52508C69.3144 1.52508 88.8643 21.0548 88.8643 45.1423Z" fill="#B42F00" stroke="#EE490E" stroke-width="3.05015"/>
<path fill-rule="evenodd" clip-rule="evenodd" d="M58.2897 88.4058C76.9422 82.8463 90.5404 65.5804 90.5404 45.1423C90.5404 20.2109 70.306 0 45.3457 0C38.8168 0 32.6113 1.38281 27.0067 3.87121L58.2897 88.4058Z" fill="#E2430B"/>
<g clip-path="url(#clip0)">
<path d="M68.1739 44.3712C67.6743 43.4832 66.5088 43.1502 65.5653 43.7052L59.2382 47.3683L57.6287 48.3118V57.0809L59.1272 57.969C59.1827 57.969 59.1827 58.0245 59.2382 58.0245L65.4543 61.632C65.7318 61.854 66.1203 61.965 66.5088 61.965C67.5633 61.965 68.3959 61.1325 68.3959 60.078V52.6409L68.4514 45.3147C68.4514 44.9817 68.3959 44.6487 68.1739 44.3712Z" fill="white"/>
<path d="M31.2102 41.5406C36.1498 41.5406 40.1459 37.5445 40.1459 32.6049C40.1459 27.6653 36.1498 23.6693 31.2102 23.6693C26.2706 23.6693 22.2745 27.6653 22.2745 32.6049C22.219 37.5445 26.2706 41.5406 31.2102 41.5406ZM31.2102 28.9419C33.2637 28.9419 34.8732 30.6069 34.8732 32.6049C34.8732 34.6585 33.2082 36.268 31.2102 36.268C29.2121 36.268 27.5471 34.603 27.5471 32.6049C27.4916 30.5514 29.1566 28.9419 31.2102 28.9419Z" fill="white"/>
<path d="M53.8545 42.0401C52.4115 42.7616 50.8019 43.2056 49.0814 43.2056C46.9724 43.2056 44.9743 42.5951 43.3093 41.4851H36.9822C35.3171 42.5951 33.3191 43.2056 31.21 43.2056C29.4895 43.2056 27.88 42.8171 26.4369 42.0401C25.1604 42.7616 24.2724 44.2047 24.2724 45.7587V59.301C24.2724 61.7985 26.3259 63.7966 28.768 63.7966H51.579C54.0765 63.7966 56.0746 61.743 56.0746 59.301V45.7587C56.0191 44.2047 55.131 42.7616 53.8545 42.0401Z" fill="white"/>
<path d="M49.0815 41.5406C54.0211 41.5406 58.0172 37.5445 58.0172 32.6049C58.0172 27.6653 54.0211 23.6692 49.0815 23.6692C44.1419 23.6692 40.1458 27.6653 40.1458 32.6049C40.1458 37.5445 44.1419 41.5406 49.0815 41.5406ZM49.0815 28.9418C51.135 28.9418 52.7446 30.6068 52.7446 32.6049C52.7446 34.6584 51.0795 36.2679 49.0815 36.2679C47.0835 36.2679 45.4184 34.6029 45.4184 32.6049C45.4184 30.5513 47.028 28.9418 49.0815 28.9418Z" fill="white"/>
</g>
<defs>
<clipPath id="clip0">
<rect width="46.1775" height="46.1775" fill="white" transform="translate(22.2739 20.644)"/>
</clipPath>
</defs>
</svg>
