<svg width="35" height="35" viewBox="0 0 35 35" fill="none" xmlns="http://www.w3.org/2000/svg">
<ellipse cx="17.5" cy="17.0513" rx="17.5" ry="17.0513" fill="#632611"/>
<path d="M17.6059 10.0971L18.1502 10.5176L17.6059 10.0971ZM17.9929 10.0865L18.5134 9.63702L17.9929 10.0865ZM22.9665 15.8455L23.487 15.396L22.9665 15.8455ZM18.2449 10.7992L18.7654 10.3497L18.2449 10.7992ZM17.3931 10.8224L16.8489 10.4019L17.3931 10.8224ZM22.7583 16.0253L23.2788 15.5758L22.7583 16.0253ZM23.2788 15.5758L18.7654 10.3497L17.7244 11.2487L22.2378 16.4748L23.2788 15.5758ZM17.4724 10.5361L22.446 16.295L23.487 15.396L18.5134 9.63702L17.4724 10.5361ZM13.5729 16.4411L18.1502 10.5176L17.0617 9.67656L12.4845 15.6L13.5729 16.4411ZM16.8489 10.4019L12.7022 15.7683L13.7906 16.6093L17.9373 11.2429L16.8489 10.4019ZM12.6329 16.7577C12.9936 17.0364 13.5119 16.97 13.7906 16.6093L12.7022 15.7683C12.888 15.5278 13.2335 15.4835 13.474 15.6693L12.6329 16.7577ZM12.4845 15.6C12.2058 15.9607 12.2723 16.479 12.6329 16.7577L13.474 15.6693C13.7144 15.8551 13.7587 16.2006 13.5729 16.4411L12.4845 15.6ZM17.1908 9.54024C17.1433 9.58125 17.1001 9.62692 17.0617 9.67656L18.1502 10.5176C18.1322 10.5408 18.1121 10.5621 18.0899 10.5813L17.1908 9.54024ZM18.5134 9.63702C18.1749 9.24507 17.5828 9.20174 17.1908 9.54024L18.0899 10.5813C17.9069 10.7393 17.6304 10.7191 17.4724 10.5361L18.5134 9.63702ZM23.4019 16.56C23.7468 16.2621 23.785 15.7409 23.487 15.396L22.446 16.295C22.2474 16.0651 22.2728 15.7176 22.5028 15.519L23.4019 16.56ZM18.7654 10.3497C18.2537 9.75725 17.3276 9.78248 16.8489 10.4019L17.9373 11.2429C17.8842 11.3118 17.7812 11.3146 17.7244 11.2487L18.7654 10.3497ZM22.2378 16.4748C22.5358 16.8198 23.0569 16.8579 23.4019 16.56L22.5028 15.519C22.7328 15.3204 23.0802 15.3458 23.2788 15.5758L22.2378 16.4748Z" fill="white"/>
</svg>
