<svg width="91" height="91" viewBox="0 0 91 91" fill="none" xmlns="http://www.w3.org/2000/svg">
<path d="M88.8643 45.1423C88.8643 69.2297 69.3144 88.7595 45.1947 88.7595C21.0749 88.7595 1.52508 69.2297 1.52508 45.1423C1.52508 21.0548 21.0749 1.52508 45.1947 1.52508C69.3144 1.52508 88.8643 21.0548 88.8643 45.1423Z" fill="#B42F00" stroke="#EE490E" stroke-width="3.05015"/>
<path fill-rule="evenodd" clip-rule="evenodd" d="M58.2896 88.4059C76.9422 82.8463 90.5404 65.5805 90.5404 45.1423C90.5404 20.2109 70.3061 0 45.3457 0C38.8168 0 32.6112 1.38283 27.0066 3.87125L58.2896 88.4059Z" fill="#E2430B"/>
<g clip-path="url(#clip0)">
<path d="M64.8079 34.9349C58.4807 24.9143 48.9492 31.8857 48.9492 31.8857C48.3311 32.3361 47.1912 32.7064 46.4168 32.7081L43.8637 32.7098C43.0892 32.7107 41.9494 32.3404 41.3321 31.89C41.3321 31.89 31.7998 24.9168 25.4717 34.9375C19.1454 44.9547 21.6949 55.864 21.6949 55.864C22.1415 58.5351 23.6137 60.3176 26.3918 60.0937C29.1619 59.8707 35.1747 52.9001 35.1747 52.9001C35.6713 52.3257 36.712 51.8564 37.4847 51.8564L52.7904 51.8538C53.564 51.8538 54.6038 52.3232 55.0996 52.8975C55.0996 52.8975 61.1132 59.8681 63.8878 60.0912C66.6623 60.315 68.1381 58.5308 68.582 55.8614C68.5811 55.8614 71.1351 44.9538 64.8079 34.9349ZM39.3874 43.0913H36.1055V46.1404C36.1055 46.1404 35.4105 46.6519 34.335 46.639C33.2612 46.6235 32.7753 46.081 32.7753 46.081V43.0921H29.6755C29.6755 43.0921 29.2888 42.7098 29.1851 41.7032C29.0833 40.6965 29.613 39.8828 29.613 39.8828H32.8959V36.7191C32.8959 36.7191 33.5712 36.3704 34.5422 36.3971C35.5141 36.4263 36.2261 36.7785 36.2261 36.7785L36.2127 39.8819H39.3124C39.3124 39.8819 39.8537 40.5519 39.8984 41.3613C39.9431 42.1716 39.3874 43.0913 39.3874 43.0913ZM54.4412 46.5667C53.0039 46.5667 51.8453 45.4464 51.8453 44.0626C51.8453 42.6762 53.0039 41.5585 54.4412 41.5585C55.8723 41.5585 57.0398 42.6762 57.0398 44.0626C57.0398 45.4472 55.8723 46.5667 54.4412 46.5667ZM54.4412 39.677C53.0039 39.677 51.8453 38.5576 51.8453 37.1738C51.8453 35.7874 53.0039 34.6697 54.4412 34.6697C55.8723 34.6697 57.0398 35.7874 57.0398 37.1738C57.0398 38.5584 55.8723 39.677 54.4412 39.677ZM60.9104 43.3754C59.4731 43.3754 58.3145 42.256 58.3145 40.8713C58.3145 39.4858 59.4731 38.3673 60.9104 38.3673C62.3415 38.3673 63.509 39.4858 63.509 40.8713C63.509 42.256 62.3415 43.3754 60.9104 43.3754Z" fill="white"/>
</g>
<defs>
<clipPath id="clip0">
<rect width="47.9038" height="46.1775" fill="white" transform="translate(21.1873 21.7307)"/>
</clipPath>
</defs>
</svg>
