<svg width="516" height="53" viewBox="0 0 516 53" fill="none" xmlns="http://www.w3.org/2000/svg">
<path d="M17 8.50342H498.752C508.278 8.50342 516 16.2257 516 25.7517C516 35.2777 508.278 43 498.752 43H17V8.50342Z" fill="#C4C4C4"/>
<path d="M76.1288 34.5652C74.9936 34.5652 74.1467 34.2434 73.5882 33.5999C73.0357 32.9503 72.7595 32.0458 72.7595 30.8862V30.522H74.089V30.8225C74.1012 31.6785 74.262 32.3281 74.5717 32.7712C74.8873 33.2144 75.4064 33.436 76.1288 33.436C76.8573 33.436 77.4037 33.1871 77.768 32.6893C78.1383 32.1915 78.3235 31.384 78.3235 30.267C78.3235 28.1786 77.5737 27.1101 76.0742 27.0616C76.0621 27.0616 75.9983 27.0616 75.883 27.0616C75.7676 27.0555 75.7039 27.0525 75.6917 27.0525V25.7685H76.056C76.8695 25.7563 77.4493 25.5256 77.7953 25.0764C78.1474 24.6271 78.3235 23.8956 78.3235 22.8817C78.3235 22.0379 78.1656 21.3853 77.8499 20.9239C77.5403 20.4564 77.0122 20.2227 76.2654 20.2227C75.5066 20.2227 74.9572 20.4352 74.6172 20.8601C74.2772 21.279 74.1012 21.9408 74.089 22.8453V23.1003H72.7595V22.7543C72.7595 21.5947 73.0418 20.6993 73.6064 20.0679C74.171 19.4304 75.0573 19.1117 76.2654 19.1117C77.4068 19.1117 78.2658 19.4517 78.8425 20.1316C79.4253 20.8116 79.7167 21.7313 79.7167 22.8909C79.7167 23.9108 79.5194 24.7182 79.1248 25.3131C78.7363 25.902 78.2142 26.2723 77.5585 26.4241C78.1778 26.5941 78.6908 26.9948 79.0975 27.6262C79.5103 28.2575 79.7167 29.1317 79.7167 30.2488C79.7167 31.5965 79.4253 32.6529 78.8425 33.4178C78.2658 34.1827 77.3612 34.5652 76.1288 34.5652ZM88.6592 37.3335C87.9671 36.9996 87.0868 36.0677 86.0183 34.5379C85.8605 34.5561 85.7026 34.5652 85.5448 34.5652C84.8163 34.5652 84.191 34.4559 83.6689 34.2374C83.1529 34.0127 82.7461 33.688 82.4486 33.263C82.1572 32.832 81.9448 32.3463 81.8112 31.806C81.6837 31.2596 81.62 30.6282 81.62 29.9118V23.6467C81.62 22.9425 81.6867 22.3202 81.8203 21.7799C81.9599 21.2396 82.1785 20.766 82.476 20.3593C82.7795 19.9525 83.1863 19.6429 83.6962 19.4304C84.2122 19.218 84.8284 19.1117 85.5448 19.1117C86.2612 19.1117 86.8743 19.218 87.3843 19.4304C87.9003 19.6429 88.3071 19.9556 88.6045 20.3684C88.9081 20.7751 89.1266 21.2487 89.2602 21.789C89.3998 22.3232 89.4696 22.9425 89.4696 23.6467V29.9301C89.4696 30.4947 89.4271 31.0046 89.3422 31.4599C89.2632 31.9152 89.1327 32.3372 88.9506 32.7257C88.7745 33.1082 88.5287 33.436 88.213 33.7092C87.9034 33.9763 87.533 34.1797 87.102 34.3193C87.3691 34.6654 87.6696 35.0205 88.0035 35.3848C88.3374 35.749 88.6167 36.004 88.8413 36.1497L88.6592 37.3335ZM84.3154 33.1992C84.6493 33.3449 85.0591 33.4178 85.5448 33.4178C86.0305 33.4178 86.4372 33.3449 86.7651 33.1992C87.099 33.0475 87.357 32.8259 87.5391 32.5345C87.7212 32.237 87.8487 31.9061 87.9216 31.5419C87.9944 31.1716 88.0308 30.7314 88.0308 30.2215V23.3917C88.0308 22.8817 87.9944 22.4477 87.9216 22.0895C87.8487 21.7252 87.7212 21.3974 87.5391 21.106C87.357 20.8146 87.099 20.5991 86.7651 20.4595C86.4372 20.3138 86.0305 20.2409 85.5448 20.2409C85.0591 20.2409 84.6493 20.3138 84.3154 20.4595C83.9876 20.5991 83.7326 20.8146 83.5505 21.106C83.3684 21.3974 83.2409 21.7252 83.168 22.0895C83.0952 22.4477 83.0588 22.8817 83.0588 23.3917V30.2215C83.0588 30.7314 83.0952 31.1716 83.168 31.5419C83.2409 31.9061 83.3684 32.237 83.5505 32.5345C83.7326 32.8259 83.9876 33.0475 84.3154 33.1992ZM91.81 34.374V19.2756H95.4343C96.096 19.2756 96.6637 19.3697 97.1372 19.5579C97.6107 19.7461 97.9841 20.0224 98.2573 20.3866C98.5305 20.7448 98.7278 21.1606 98.8492 21.6342C98.9706 22.1077 99.0313 22.6541 99.0313 23.2733C99.0313 23.8318 98.9645 24.3448 98.831 24.8123C98.7035 25.2737 98.5001 25.6895 98.2208 26.0599C97.9477 26.4241 97.5743 26.7094 97.1008 26.9159C96.6333 27.1223 96.0839 27.2255 95.4525 27.2255H93.2397V34.374H91.81ZM93.2397 26.1691H95.0518C95.9807 26.1691 96.6424 25.9567 97.037 25.5317C97.4377 25.1007 97.638 24.3509 97.638 23.2824C97.638 22.1229 97.462 21.3428 97.1099 20.9421C96.7578 20.5353 96.0778 20.332 95.0701 20.332H93.2397V26.1691ZM102.255 33.3085H104.158C104.626 33.3085 105.02 33.2448 105.342 33.1173C105.67 32.9837 105.925 32.8168 106.107 32.6164C106.295 32.41 106.441 32.1308 106.544 31.7787C106.647 31.4265 106.711 31.0835 106.735 30.7496C106.766 30.4097 106.781 29.9908 106.781 29.493V23.8561C106.781 23.3705 106.76 22.9576 106.717 22.6177C106.681 22.2777 106.605 21.959 106.489 21.6615C106.38 21.3579 106.225 21.1181 106.025 20.9421C105.831 20.76 105.573 20.6203 105.251 20.5232C104.935 20.42 104.556 20.3684 104.113 20.3684H102.255V33.3085ZM100.825 34.374V19.2756H104.131C104.744 19.2756 105.284 19.3454 105.752 19.4851C106.225 19.6247 106.617 19.819 106.927 20.0679C107.236 20.3168 107.488 20.6294 107.682 21.0058C107.877 21.3822 108.013 21.789 108.092 22.2261C108.177 22.6632 108.22 23.158 108.22 23.7104V29.7115C108.22 30.4461 108.153 31.0896 108.019 31.6421C107.886 32.1945 107.667 32.6802 107.364 33.0991C107.06 33.518 106.647 33.8367 106.125 34.0552C105.609 34.2677 104.981 34.374 104.24 34.374H100.825ZM110.423 34.374L110.815 19.2756H112.208L115.213 32.3797L118.237 19.2756H119.666L120.04 34.374H118.856L118.564 22.3354L115.678 34.374H114.767L111.917 22.3627L111.625 34.374H110.423ZM126.706 34.374V29.9847H122.161V28.555L126.423 19.2665H128.081V28.7007H129.793V29.9847H128.081V34.374H126.706ZM123.564 28.7007H126.706V21.1151L123.564 28.7007ZM135.238 34.5652C134.643 34.5652 134.118 34.4832 133.663 34.3193C133.214 34.1554 132.846 33.9369 132.561 33.6637C132.282 33.3905 132.054 33.0475 131.878 32.6346C131.702 32.2218 131.58 31.7908 131.514 31.3415C131.447 30.8923 131.414 30.3884 131.414 29.8299V23.8288C131.414 23.246 131.447 22.7269 131.514 22.2716C131.587 21.8102 131.711 21.3792 131.887 20.9785C132.069 20.5718 132.303 20.2348 132.588 19.9677C132.874 19.7006 133.238 19.4911 133.681 19.3394C134.13 19.1876 134.649 19.1117 135.238 19.1117C135.9 19.1117 136.464 19.2119 136.932 19.4122C137.399 19.6065 137.77 19.8949 138.043 20.2773C138.316 20.6598 138.513 21.106 138.635 21.616C138.756 22.1259 138.817 22.7209 138.817 23.4008V24.3297H137.469V23.4463C137.469 22.9121 137.442 22.4659 137.387 22.1077C137.333 21.7495 137.226 21.4217 137.069 21.1242C136.917 20.8207 136.689 20.5991 136.386 20.4595C136.088 20.3138 135.709 20.2409 135.247 20.2409C134.749 20.2409 134.337 20.3198 134.009 20.4777C133.687 20.6355 133.444 20.8753 133.28 21.1971C133.116 21.5188 133.004 21.8709 132.943 22.2534C132.883 22.6298 132.852 23.0942 132.852 23.6467V30.0576C132.852 31.2292 133.025 32.0822 133.371 32.6164C133.723 33.1507 134.349 33.4178 135.247 33.4178C135.618 33.4178 135.936 33.3662 136.203 33.263C136.471 33.1537 136.683 33.011 136.841 32.835C137.005 32.6589 137.132 32.4282 137.223 32.1429C137.32 31.8515 137.384 31.554 137.415 31.2505C137.451 30.9409 137.469 30.5736 137.469 30.1486V29.1651H138.817V30.0484C138.817 30.6009 138.784 31.0987 138.717 31.5419C138.65 31.979 138.532 32.3918 138.362 32.7804C138.198 33.1689 137.982 33.4906 137.715 33.7456C137.448 34.0006 137.105 34.2009 136.686 34.3466C136.273 34.4923 135.791 34.5652 135.238 34.5652ZM141.021 34.374V19.2756H142.45V27.2346L146.485 19.2756H147.85L144.727 25.7594L148.515 34.374H147.104L143.671 26.5061L142.45 28.7644V34.374H141.021ZM148.688 35.0387V33.9642C149.046 33.9642 149.341 33.952 149.572 33.9278C149.808 33.9035 150.018 33.8519 150.2 33.7729C150.382 33.688 150.522 33.5908 150.619 33.4815C150.716 33.3723 150.795 33.2114 150.856 32.9989C150.916 32.7804 150.953 32.5497 150.965 32.3068C150.983 32.0579 150.992 31.7331 150.992 31.3324V19.2756H152.422V31.4235C152.422 31.9517 152.398 32.3948 152.349 32.753C152.3 33.1112 152.212 33.4451 152.085 33.7547C151.964 34.0643 151.79 34.3072 151.566 34.4832C151.341 34.6593 151.05 34.7959 150.692 34.893C150.333 34.9902 149.899 35.0387 149.389 35.0387H148.688ZM158.468 34.5652C156.143 34.5652 154.981 32.9868 154.981 29.8299V23.8015C154.981 20.675 156.143 19.1117 158.468 19.1117C159.598 19.1117 160.442 19.4031 161 19.9859C161.559 20.5687 161.844 21.446 161.856 22.6177C161.856 22.6237 161.856 22.6723 161.856 22.7634C161.862 22.8544 161.865 22.903 161.865 22.9091H160.517C160.517 21.9499 160.363 21.2669 160.053 20.8601C159.749 20.4473 159.233 20.2409 158.505 20.2409C157.066 20.2409 156.347 21.3246 156.347 23.4919V26.3422C156.608 26.0993 156.954 25.8899 157.385 25.7138C157.822 25.5378 158.289 25.4497 158.787 25.4497C159.995 25.4497 160.839 25.7988 161.319 26.497C161.804 27.1951 162.047 28.3486 162.047 29.9574C162.047 33.0293 160.854 34.5652 158.468 34.5652ZM158.468 33.4178C159.221 33.4178 159.774 33.1659 160.126 32.662C160.478 32.1581 160.654 31.3446 160.654 30.2215C160.654 29.7661 160.645 29.3867 160.627 29.0832C160.608 28.7736 160.572 28.467 160.517 28.1634C160.469 27.8599 160.396 27.617 160.299 27.4349C160.202 27.2467 160.071 27.0798 159.907 26.9341C159.749 26.7823 159.552 26.6761 159.315 26.6153C159.079 26.5486 158.796 26.5152 158.468 26.5152C158.068 26.5152 157.667 26.6062 157.266 26.7884C156.872 26.9705 156.565 27.1678 156.347 27.3803V29.9938C156.347 31.1958 156.517 32.067 156.857 32.6073C157.197 33.1476 157.734 33.4178 158.468 33.4178ZM168.394 34.374V29.9847H163.85V28.555L168.112 19.2665H169.769V28.7007H171.481V29.9847H169.769V34.374H168.394ZM165.253 28.7007H168.394V21.1151L165.253 28.7007ZM173.467 34.374V19.2756H174.869V34.374H173.467ZM177.537 34.374V19.2756H180.97C182.312 19.2756 183.271 19.6004 183.848 20.25C184.425 20.8935 184.713 21.8406 184.713 23.0912C184.713 25.1735 184.012 26.3604 182.609 26.6518L184.95 34.374H183.547L181.335 26.9523H178.967V34.374H177.537ZM178.967 25.9051H180.888C181.799 25.9051 182.433 25.6835 182.792 25.2403C183.15 24.791 183.329 24.0747 183.329 23.0912C183.329 22.1198 183.159 21.4187 182.819 20.9876C182.479 20.5566 181.851 20.3411 180.934 20.3411H178.967V25.9051ZM186.052 34.374L189.312 26.5061L186.088 19.2665H187.399L190.113 25.2949L192.708 19.2665H194.074L190.723 26.6791L194.165 34.374H192.818L189.958 27.9995L187.418 34.374H186.052ZM198.427 34.374V21.0878C198.233 21.3731 197.45 21.704 196.078 22.0804V20.9785C196.515 20.8632 196.982 20.6568 197.48 20.3593C197.984 20.0557 198.388 19.6945 198.691 19.2756H199.793V34.374H198.427ZM203.727 34.374V19.2756H204.774L209.582 30.9955V19.2756H210.803V34.374H209.801L204.956 22.5175V34.374H203.727ZM217.141 34.5652C216.54 34.5652 216.012 34.4954 215.556 34.3557C215.101 34.2161 214.731 34.0249 214.445 33.782C214.16 33.5331 213.929 33.2235 213.753 32.8532C213.577 32.4829 213.453 32.0913 213.38 31.6785C213.313 31.2596 213.28 30.783 213.28 30.2488V19.2756H214.655V30.2943C214.655 30.6707 214.676 31.0076 214.718 31.3051C214.761 31.6026 214.837 31.8879 214.946 32.1611C215.055 32.4282 215.201 32.6529 215.383 32.835C215.565 33.011 215.805 33.1537 216.103 33.263C216.4 33.3662 216.746 33.4178 217.141 33.4178C217.614 33.4178 218.015 33.3419 218.343 33.1901C218.677 33.0323 218.932 32.8077 219.108 32.5163C219.29 32.2188 219.42 31.891 219.499 31.5328C219.578 31.1746 219.618 30.7618 219.618 30.2943V19.2756H220.984V30.2488C220.984 30.777 220.947 31.2505 220.874 31.6694C220.801 32.0883 220.674 32.4829 220.492 32.8532C220.31 33.2235 220.073 33.5331 219.782 33.782C219.496 34.0249 219.129 34.2161 218.68 34.3557C218.237 34.4954 217.724 34.5652 217.141 34.5652ZM225.865 34.374V29.3564L222.459 19.2756H223.852L226.566 27.6626L229.179 19.2756H230.573L227.249 29.3564V34.374H225.865ZM234.115 34.374L231.547 19.2847L232.767 19.2756L234.752 31.5328L237.038 19.5033H238.213L240.535 31.551L242.384 19.2756H243.586L241.145 34.374H240.034L237.639 21.9074L235.262 34.374H234.115ZM248.885 34.5652C246.615 34.5652 245.465 33.3874 245.434 31.0319V30.7587H246.782C246.782 31.7301 246.937 32.4191 247.246 32.8259C247.562 33.2266 248.114 33.4269 248.904 33.4269C249.578 33.4269 250.084 33.178 250.424 32.6802C250.77 32.1824 250.943 31.3446 250.943 30.1668V27.3256C250.731 27.5685 250.415 27.7779 249.996 27.954C249.584 28.124 249.089 28.209 248.512 28.209C247.298 28.209 246.451 27.8599 245.971 27.1617C245.492 26.4636 245.252 25.3131 245.252 23.7104C245.252 20.6446 246.451 19.1117 248.849 19.1117C251.162 19.1117 252.319 20.6871 252.319 23.8379V29.8663C252.319 32.9989 251.174 34.5652 248.885 34.5652ZM248.831 27.1526C249.711 27.1526 250.415 26.8612 250.943 26.2784V23.674C250.943 22.4659 250.777 21.5947 250.443 21.0605C250.115 20.5202 249.584 20.25 248.849 20.25C248.102 20.25 247.547 20.5111 247.183 21.0332C246.824 21.5553 246.645 22.3596 246.645 23.4463C246.645 23.9017 246.654 24.2841 246.673 24.5937C246.691 24.8973 246.724 25.2008 246.773 25.5044C246.827 25.8079 246.903 26.0538 247 26.242C247.098 26.4241 247.225 26.5911 247.383 26.7428C247.547 26.8885 247.747 26.9948 247.984 27.0616C248.221 27.1223 248.503 27.1526 248.831 27.1526ZM254.021 34.374V33.2994L259.085 20.3411H254.431V19.2756H260.605V20.0132L255.424 33.3085H260.624V34.374H254.021ZM265.823 34.5652C265.228 34.5652 264.703 34.4832 264.248 34.3193C263.799 34.1554 263.431 33.9369 263.146 33.6637C262.867 33.3905 262.639 33.0475 262.463 32.6346C262.287 32.2218 262.166 31.7908 262.099 31.3415C262.032 30.8923 261.999 30.3884 261.999 29.8299V23.8288C261.999 23.246 262.032 22.7269 262.099 22.2716C262.172 21.8102 262.296 21.3792 262.472 20.9785C262.654 20.5718 262.888 20.2348 263.173 19.9677C263.459 19.7006 263.823 19.4911 264.266 19.3394C264.715 19.1876 265.234 19.1117 265.823 19.1117C266.485 19.1117 267.05 19.2119 267.517 19.4122C267.985 19.6065 268.355 19.8949 268.628 20.2773C268.901 20.6598 269.099 21.106 269.22 21.616C269.341 22.1259 269.402 22.7209 269.402 23.4008V24.3297H268.054V23.4463C268.054 22.9121 268.027 22.4659 267.972 22.1077C267.918 21.7495 267.811 21.4217 267.654 21.1242C267.502 20.8207 267.274 20.5991 266.971 20.4595C266.673 20.3138 266.294 20.2409 265.832 20.2409C265.335 20.2409 264.922 20.3198 264.594 20.4777C264.272 20.6355 264.029 20.8753 263.865 21.1971C263.701 21.5188 263.589 21.8709 263.528 22.2534C263.468 22.6298 263.437 23.0942 263.437 23.6467V30.0576C263.437 31.2292 263.61 32.0822 263.956 32.6164C264.309 33.1507 264.934 33.4178 265.832 33.4178C266.203 33.4178 266.521 33.3662 266.789 33.263C267.056 33.1537 267.268 33.011 267.426 32.835C267.59 32.6589 267.717 32.4282 267.808 32.1429C267.906 31.8515 267.969 31.554 268 31.2505C268.036 30.9409 268.054 30.5736 268.054 30.1486V29.1651H269.402V30.0484C269.402 30.6009 269.369 31.0987 269.302 31.5419C269.235 31.979 269.117 32.3918 268.947 32.7804C268.783 33.1689 268.567 33.4906 268.3 33.7456C268.033 34.0006 267.69 34.2009 267.271 34.3466C266.858 34.4923 266.376 34.5652 265.823 34.5652ZM275.13 34.5652C274.535 34.5652 274.01 34.4832 273.555 34.3193C273.105 34.1554 272.738 33.9369 272.453 33.6637C272.173 33.3905 271.946 33.0475 271.77 32.6346C271.594 32.2218 271.472 31.7908 271.405 31.3415C271.339 30.8923 271.305 30.3884 271.305 29.8299V23.8288C271.305 23.246 271.339 22.7269 271.405 22.2716C271.478 21.8102 271.603 21.3792 271.779 20.9785C271.961 20.5718 272.195 20.2348 272.48 19.9677C272.765 19.7006 273.13 19.4911 273.573 19.3394C274.022 19.1876 274.541 19.1117 275.13 19.1117C275.792 19.1117 276.356 19.2119 276.824 19.4122C277.291 19.6065 277.662 19.8949 277.935 20.2773C278.208 20.6598 278.405 21.106 278.527 21.616C278.648 22.1259 278.709 22.7209 278.709 23.4008V24.3297H277.361V23.4463C277.361 22.9121 277.334 22.4659 277.279 22.1077C277.224 21.7495 277.118 21.4217 276.96 21.1242C276.809 20.8207 276.581 20.5991 276.277 20.4595C275.98 20.3138 275.6 20.2409 275.139 20.2409C274.641 20.2409 274.228 20.3198 273.901 20.4777C273.579 20.6355 273.336 20.8753 273.172 21.1971C273.008 21.5188 272.896 21.8709 272.835 22.2534C272.774 22.6298 272.744 23.0942 272.744 23.6467V30.0576C272.744 31.2292 272.917 32.0822 273.263 32.6164C273.615 33.1507 274.241 33.4178 275.139 33.4178C275.509 33.4178 275.828 33.3662 276.095 33.263C276.362 33.1537 276.575 33.011 276.733 32.835C276.897 32.6589 277.024 32.4282 277.115 32.1429C277.212 31.8515 277.276 31.554 277.306 31.2505C277.343 30.9409 277.361 30.5736 277.361 30.1486V29.1651H278.709V30.0484C278.709 30.6009 278.675 31.0987 278.609 31.5419C278.542 31.979 278.423 32.3918 278.253 32.7804C278.09 33.1689 277.874 33.4906 277.607 33.7456C277.34 34.0006 276.997 34.2009 276.578 34.3466C276.165 34.4923 275.682 34.5652 275.13 34.5652ZM283.59 34.374L280.056 19.2756H281.413L284.264 31.7695L286.95 19.2756H288.289L284.883 34.374H283.59ZM293.579 34.5652C292.984 34.5652 292.459 34.4832 292.004 34.3193C291.555 34.1554 291.187 33.9369 290.902 33.6637C290.623 33.3905 290.395 33.0475 290.219 32.6346C290.043 32.2218 289.922 31.7908 289.855 31.3415C289.788 30.8923 289.755 30.3884 289.755 29.8299V23.8288C289.755 23.246 289.788 22.7269 289.855 22.2716C289.928 21.8102 290.052 21.3792 290.228 20.9785C290.41 20.5718 290.644 20.2348 290.929 19.9677C291.215 19.7006 291.579 19.4911 292.022 19.3394C292.471 19.1876 292.991 19.1117 293.579 19.1117C294.241 19.1117 294.806 19.2119 295.273 19.4122C295.741 19.6065 296.111 19.8949 296.384 20.2773C296.657 20.6598 296.855 21.106 296.976 21.616C297.098 22.1259 297.158 22.7209 297.158 23.4008V24.3297H295.81V23.4463C295.81 22.9121 295.783 22.4659 295.729 22.1077C295.674 21.7495 295.568 21.4217 295.41 21.1242C295.258 20.8207 295.03 20.5991 294.727 20.4595C294.429 20.3138 294.05 20.2409 293.589 20.2409C293.091 20.2409 292.678 20.3198 292.35 20.4777C292.028 20.6355 291.785 20.8753 291.622 21.1971C291.458 21.5188 291.345 21.8709 291.285 22.2534C291.224 22.6298 291.194 23.0942 291.194 23.6467V30.0576C291.194 31.2292 291.367 32.0822 291.713 32.6164C292.065 33.1507 292.69 33.4178 293.589 33.4178C293.959 33.4178 294.278 33.3662 294.545 33.263C294.812 33.1537 295.024 33.011 295.182 32.835C295.346 32.6589 295.474 32.4282 295.565 32.1429C295.662 31.8515 295.725 31.554 295.756 31.2505C295.792 30.9409 295.81 30.5736 295.81 30.1486V29.1651H297.158V30.0484C297.158 30.6009 297.125 31.0987 297.058 31.5419C296.991 31.979 296.873 32.3918 296.703 32.7804C296.539 33.1689 296.323 33.4906 296.056 33.7456C295.789 34.0006 295.446 34.2009 295.027 34.3466C294.615 34.4923 294.132 34.5652 293.579 34.5652ZM298.97 34.374V33.3723L303.032 27.1344C303.074 27.0616 303.171 26.9128 303.323 26.6882C303.475 26.4636 303.575 26.3148 303.624 26.242C303.672 26.1631 303.757 26.0234 303.879 25.8231C304 25.6167 304.085 25.4649 304.134 25.3678C304.182 25.2646 304.249 25.1219 304.334 24.9398C304.425 24.7516 304.489 24.5907 304.525 24.4571C304.562 24.3175 304.604 24.1566 304.653 23.9745C304.701 23.7863 304.732 23.6011 304.744 23.419C304.762 23.2369 304.771 23.0487 304.771 22.8544C304.771 22.0349 304.601 21.3974 304.261 20.9421C303.921 20.4807 303.42 20.25 302.759 20.25C302.303 20.25 301.918 20.3289 301.602 20.4868C301.293 20.6446 301.056 20.8753 300.892 21.1789C300.728 21.4763 300.61 21.8042 300.537 22.1623C300.47 22.5145 300.437 22.9273 300.437 23.4008V23.7468H299.08V23.3644C299.08 21.9499 299.368 20.8875 299.945 20.1772C300.528 19.4669 301.444 19.1117 302.695 19.1117C303.818 19.1117 304.671 19.4456 305.254 20.1134C305.843 20.7812 306.137 21.7252 306.137 22.9455C306.137 23.3037 306.101 23.6588 306.028 24.0109C305.955 24.363 305.873 24.6696 305.782 24.9307C305.691 25.1917 305.548 25.4983 305.354 25.8504C305.166 26.1965 305.011 26.4666 304.89 26.6609C304.768 26.8491 304.583 27.1283 304.334 27.4987L300.564 33.2175H305.809V34.374H298.97ZM315.152 37.3335C314.46 36.9996 313.58 36.0677 312.512 34.5379C312.354 34.5561 312.196 34.5652 312.038 34.5652C311.31 34.5652 310.684 34.4559 310.162 34.2374C309.646 34.0127 309.239 33.688 308.942 33.263C308.65 32.832 308.438 32.3463 308.304 31.806C308.177 31.2596 308.113 30.6282 308.113 29.9118V23.6467C308.113 22.9425 308.18 22.3202 308.314 21.7799C308.453 21.2396 308.672 20.766 308.969 20.3593C309.273 19.9525 309.679 19.6429 310.189 19.4304C310.705 19.218 311.322 19.1117 312.038 19.1117C312.754 19.1117 313.368 19.218 313.877 19.4304C314.394 19.6429 314.8 19.9556 315.098 20.3684C315.401 20.7751 315.62 21.2487 315.753 21.789C315.893 22.3232 315.963 22.9425 315.963 23.6467V29.9301C315.963 30.4947 315.92 31.0046 315.835 31.4599C315.756 31.9152 315.626 32.3372 315.444 32.7257C315.268 33.1082 315.022 33.436 314.706 33.7092C314.397 33.9763 314.026 34.1797 313.595 34.3193C313.862 34.6654 314.163 35.0205 314.497 35.3848C314.831 35.749 315.11 36.004 315.335 36.1497L315.152 37.3335ZM310.809 33.1992C311.143 33.3449 311.552 33.4178 312.038 33.4178C312.524 33.4178 312.93 33.3449 313.258 33.1992C313.592 33.0475 313.85 32.8259 314.032 32.5345C314.214 32.237 314.342 31.9061 314.415 31.5419C314.488 31.1716 314.524 30.7314 314.524 30.2215V23.3917C314.524 22.8817 314.488 22.4477 314.415 22.0895C314.342 21.7252 314.214 21.3974 314.032 21.106C313.85 20.8146 313.592 20.5991 313.258 20.4595C312.93 20.3138 312.524 20.2409 312.038 20.2409C311.552 20.2409 311.143 20.3138 310.809 20.4595C310.481 20.5991 310.226 20.8146 310.044 21.106C309.862 21.3974 309.734 21.7252 309.661 22.0895C309.588 22.4477 309.552 22.8817 309.552 23.3917V30.2215C309.552 30.7314 309.588 31.1716 309.661 31.5419C309.734 31.9061 309.862 32.237 310.044 32.5345C310.226 32.8259 310.481 33.0475 310.809 33.1992ZM317.256 34.374L320.516 26.5061L317.292 19.2665H318.604L321.317 25.2949L323.913 19.2665H325.279L321.928 26.6791L325.37 34.374H324.022L321.163 27.9995L318.622 34.374H317.256ZM329.313 33.1992C329.641 33.3449 330.047 33.4178 330.533 33.4178C331.019 33.4178 331.425 33.3449 331.753 33.1992C332.081 33.0475 332.33 32.8228 332.5 32.5254C332.676 32.2279 332.797 31.897 332.864 31.5328C332.937 31.1685 332.974 30.7314 332.974 30.2215V23.3917C332.974 22.8817 332.937 22.4477 332.864 22.0895C332.797 21.7252 332.676 21.3974 332.5 21.106C332.33 20.8146 332.081 20.5991 331.753 20.4595C331.425 20.3138 331.019 20.2409 330.533 20.2409C330.047 20.2409 329.641 20.3138 329.313 20.4595C328.985 20.5991 328.733 20.8146 328.557 21.106C328.387 21.3974 328.266 21.7252 328.193 22.0895C328.126 22.4477 328.093 22.8817 328.093 23.3917V30.2215C328.093 30.7314 328.126 31.1685 328.193 31.5328C328.266 31.897 328.387 32.2279 328.557 32.5254C328.733 32.8228 328.985 33.0475 329.313 33.1992ZM330.533 34.5652C329.805 34.5652 329.182 34.4559 328.666 34.2374C328.156 34.0127 327.756 33.688 327.464 33.263C327.179 32.832 326.972 32.3463 326.845 31.806C326.717 31.2596 326.654 30.6282 326.654 29.9118V23.6467C326.654 22.9364 326.717 22.3141 326.845 21.7799C326.979 21.2456 327.191 20.7751 327.482 20.3684C327.78 19.9556 328.184 19.6429 328.694 19.4304C329.203 19.218 329.817 19.1117 330.533 19.1117C331.249 19.1117 331.863 19.218 332.373 19.4304C332.882 19.6429 333.283 19.9556 333.575 20.3684C333.872 20.7812 334.085 21.2547 334.212 21.789C334.346 22.3232 334.412 22.9425 334.412 23.6467V29.9301C334.412 30.4947 334.373 31.0046 334.294 31.4599C334.221 31.9152 334.091 32.3402 333.902 32.7348C333.72 33.1294 333.483 33.4603 333.192 33.7274C332.901 33.9885 332.53 34.1949 332.081 34.3466C331.632 34.4923 331.116 34.5652 330.533 34.5652ZM343.473 37.3335C342.781 36.9996 341.901 36.0677 340.832 34.5379C340.674 34.5561 340.517 34.5652 340.359 34.5652C339.63 34.5652 339.005 34.4559 338.483 34.2374C337.967 34.0127 337.56 33.688 337.263 33.263C336.971 32.832 336.759 32.3463 336.625 31.806C336.498 31.2596 336.434 30.6282 336.434 29.9118V23.6467C336.434 22.9425 336.501 22.3202 336.634 21.7799C336.774 21.2396 336.992 20.766 337.29 20.3593C337.593 19.9525 338 19.6429 338.51 19.4304C339.026 19.218 339.642 19.1117 340.359 19.1117C341.075 19.1117 341.688 19.218 342.198 19.4304C342.714 19.6429 343.121 19.9556 343.419 20.3684C343.722 20.7751 343.941 21.2487 344.074 21.789C344.214 22.3232 344.284 22.9425 344.284 23.6467V29.9301C344.284 30.4947 344.241 31.0046 344.156 31.4599C344.077 31.9152 343.947 32.3372 343.765 32.7257C343.588 33.1082 343.343 33.436 343.027 33.7092C342.717 33.9763 342.347 34.1797 341.916 34.3193C342.183 34.6654 342.484 35.0205 342.817 35.3848C343.151 35.749 343.431 36.004 343.655 36.1497L343.473 37.3335ZM339.129 33.1992C339.463 33.3449 339.873 33.4178 340.359 33.4178C340.844 33.4178 341.251 33.3449 341.579 33.1992C341.913 33.0475 342.171 32.8259 342.353 32.5345C342.535 32.237 342.663 31.9061 342.736 31.5419C342.808 31.1716 342.845 30.7314 342.845 30.2215V23.3917C342.845 22.8817 342.808 22.4477 342.736 22.0895C342.663 21.7252 342.535 21.3974 342.353 21.106C342.171 20.8146 341.913 20.5991 341.579 20.4595C341.251 20.3138 340.844 20.2409 340.359 20.2409C339.873 20.2409 339.463 20.3138 339.129 20.4595C338.802 20.5991 338.547 20.8146 338.364 21.106C338.182 21.3974 338.055 21.7252 337.982 22.0895C337.909 22.4477 337.873 22.8817 337.873 23.3917V30.2215C337.873 30.7314 337.909 31.1716 337.982 31.5419C338.055 31.9061 338.182 32.237 338.364 32.5345C338.547 32.8259 338.802 33.0475 339.129 33.1992ZM346.624 34.374V19.2756H348.054V27.2346L352.088 19.2756H353.454L350.33 25.7594L354.118 34.374H352.707L349.274 26.5061L348.054 28.7644V34.374H346.624ZM359.163 34.5652C358.562 34.5652 358.034 34.4954 357.579 34.3557C357.124 34.2161 356.753 34.0249 356.468 33.782C356.183 33.5331 355.952 33.2235 355.776 32.8532C355.6 32.4829 355.475 32.0913 355.402 31.6785C355.336 31.2596 355.302 30.783 355.302 30.2488V19.2756H356.677V30.2943C356.677 30.6707 356.699 31.0076 356.741 31.3051C356.784 31.6026 356.859 31.8879 356.969 32.1611C357.078 32.4282 357.224 32.6529 357.406 32.835C357.588 33.011 357.828 33.1537 358.125 33.263C358.423 33.3662 358.769 33.4178 359.163 33.4178C359.637 33.4178 360.038 33.3419 360.365 33.1901C360.699 33.0323 360.954 32.8077 361.13 32.5163C361.312 32.2188 361.443 31.891 361.522 31.5328C361.601 31.1746 361.64 30.7618 361.64 30.2943V19.2756H363.006V30.2488C363.006 30.777 362.97 31.2505 362.897 31.6694C362.824 32.0883 362.697 32.4829 362.515 32.8532C362.332 33.2235 362.096 33.5331 361.804 33.782C361.519 34.0249 361.152 34.2161 360.702 34.3557C360.259 34.4954 359.746 34.5652 359.163 34.5652ZM365.474 34.374V19.2756H368.716C370.033 19.2756 370.98 19.6004 371.557 20.25C372.134 20.8996 372.422 21.8284 372.422 23.0366C372.422 23.5587 372.368 24.0322 372.258 24.4571C372.149 24.876 371.946 25.2524 371.648 25.5863C371.351 25.9202 370.968 26.1357 370.501 26.2329C370.926 26.3482 371.29 26.5334 371.594 26.7884C371.903 27.0433 372.14 27.3469 372.304 27.699C372.474 28.045 372.595 28.4063 372.668 28.7827C372.741 29.1591 372.777 29.5658 372.777 30.0029C372.777 30.5129 372.744 30.9743 372.677 31.3871C372.617 31.7999 372.504 32.1975 372.34 32.58C372.176 32.9564 371.961 33.2751 371.694 33.5362C371.433 33.7912 371.093 33.9945 370.674 34.1463C370.255 34.2981 369.769 34.374 369.217 34.374H365.474ZM366.904 33.3085H368.953C369.894 33.3085 370.537 33.0535 370.883 32.5436C371.229 32.0336 371.402 31.1898 371.402 30.012C371.402 27.9236 370.592 26.8794 368.971 26.8794H366.904V33.3085ZM366.904 25.7776H368.962C369.769 25.7776 370.334 25.5438 370.656 25.0764C370.977 24.6089 371.138 23.929 371.138 23.0366C371.138 22.0834 370.932 21.4004 370.519 20.9876C370.112 20.5748 369.359 20.3684 368.261 20.3684H366.904V25.7776ZM377.249 34.374V29.3564L373.843 19.2756H375.236L377.95 27.6626L380.563 19.2756H381.957L378.633 29.3564V34.374H377.249Z" fill="white"/>
<path d="M56.2245 26.3636C56.2245 39.7878 44.1987 50.9518 29 50.9518C13.8013 50.9518 1.77551 39.7878 1.77551 26.3636C1.77551 12.9394 13.8013 1.77551 29 1.77551C44.1987 1.77551 56.2245 12.9394 56.2245 26.3636Z" fill="#EE490E" stroke="black" stroke-width="3.55102"/>
<path d="M53.1855 26.1287C53.1855 38.4778 42.1556 48.5801 28.4314 48.5801C14.7072 48.5801 3.6773 38.4778 3.6773 26.1287C3.6773 13.7795 14.7072 3.6773 28.4314 3.6773C42.1556 3.6773 53.1855 13.7795 53.1855 26.1287Z" fill="#F9A644" stroke="white" stroke-width="1.15135"/>
<g clip-path="url(#clip0)">
<path d="M37.7222 28.1603C37.0737 27.199 36.0951 26.5387 34.7864 26.1798C36.4529 25.2054 37.1853 23.5515 36.9842 21.2179C36.917 20.3717 36.713 19.6383 36.3717 19.0167C36.0302 18.3949 35.5694 17.8951 34.9874 17.5169C34.406 17.1383 33.7735 16.8501 33.0917 16.6514C32.4096 16.4527 31.6265 16.3084 30.743 16.2187V11.3726H28.1597V16.0841C27.7124 16.0841 27.0302 16.0969 26.1133 16.1226V11.3726H23.5297V16.2187C23.1605 16.2316 22.6181 16.2381 21.9024 16.2381L18.346 16.2187V19.3727H20.208C21.058 19.3727 21.5557 19.8087 21.7011 20.6803V26.1997C21.813 26.1997 21.9024 26.2063 21.9696 26.2191H21.7011V33.9496C21.6117 34.6033 21.2874 34.9304 20.7281 34.9304H18.8663L18.3461 38.4497H21.7013C21.9139 38.4497 22.2212 38.453 22.624 38.4588C23.0266 38.4652 23.3284 38.4685 23.5298 38.4685V43.3722H26.1138V38.5261C26.5834 38.5393 27.2656 38.5455 28.1603 38.5455V43.3722H30.7436V38.4685C31.6608 38.4173 32.4744 38.3216 33.1843 38.1801C33.8945 38.0386 34.5741 37.8178 35.2226 37.5163C35.871 37.2152 36.4134 36.84 36.8495 36.3912C37.2858 35.9429 37.6462 35.3721 37.9319 34.6797C38.2166 33.9873 38.3986 33.186 38.4766 32.2755C38.6226 30.494 38.3708 29.122 37.7222 28.1603ZM26.1635 19.5836C26.2418 19.5836 26.4627 19.5804 26.8262 19.5739C27.1898 19.5673 27.4917 19.561 27.7321 19.5545C27.9726 19.5482 28.2969 19.5642 28.7053 19.6027C29.1135 19.6411 29.4574 19.6925 29.7369 19.7565C30.0164 19.8205 30.3242 19.9263 30.6594 20.0738C30.9952 20.2211 31.2635 20.4007 31.4645 20.6122C31.666 20.8237 31.8365 21.093 31.9761 21.42C32.116 21.7469 32.186 22.1218 32.186 22.5448C32.186 22.9038 32.1357 23.2309 32.0352 23.5259C31.9348 23.8207 31.7835 24.0676 31.5824 24.2663C31.3813 24.465 31.174 24.6383 30.9614 24.7856C30.7491 24.9329 30.4777 25.0516 30.1479 25.1412C29.8181 25.231 29.5302 25.3015 29.2843 25.3527C29.0382 25.4041 28.7307 25.4394 28.3616 25.4586C27.9924 25.4777 27.7127 25.4908 27.5227 25.4971C27.3325 25.5034 27.0725 25.5034 26.7425 25.4971C26.4124 25.4908 26.2197 25.4874 26.1637 25.4874V19.5836H26.1635V19.5836ZM33.218 32.6796C33.1115 32.9746 32.9747 33.2312 32.807 33.4493C32.6391 33.6669 32.4181 33.8594 32.1442 34.0258C31.8704 34.1927 31.6045 34.3271 31.3475 34.4297C31.0902 34.5327 30.7797 34.6219 30.4166 34.6991C30.0526 34.7761 29.7341 34.8303 29.4598 34.8625C29.1859 34.8946 28.859 34.9202 28.4786 34.9396C28.0985 34.9584 27.8019 34.9682 27.5895 34.9682C27.377 34.9682 27.1085 34.9647 26.7842 34.9584C26.4596 34.9524 26.2529 34.9492 26.1634 34.9492V28.4489C26.2527 28.4489 26.5184 28.4427 26.9603 28.4296C27.4022 28.4167 27.7627 28.4107 28.0423 28.4107C28.3219 28.4107 28.7078 28.4296 29.2001 28.4683C29.6919 28.5065 30.1057 28.564 30.4416 28.6409C30.7769 28.718 31.1429 28.8364 31.5403 28.9968C31.9372 29.157 32.2589 29.3525 32.505 29.5832C32.7511 29.8144 32.9579 30.1088 33.1256 30.4679C33.2937 30.8268 33.3775 31.2371 33.3775 31.6988C33.3775 32.0581 33.3244 32.3845 33.218 32.6796Z" fill="black"/>
</g>
<defs>
<clipPath id="clip0">
<rect width="27.9144" height="31.9995" fill="white" transform="translate(14.4742 11.3726)"/>
</clipPath>
</defs>
</svg>
