<svg width="91" height="91" viewBox="0 0 91 91" fill="none" xmlns="http://www.w3.org/2000/svg">
<path d="M88.8643 45.1423C88.8643 69.2297 69.3144 88.7595 45.1947 88.7595C21.0749 88.7595 1.52508 69.2297 1.52508 45.1423C1.52508 21.0548 21.0749 1.52508 45.1947 1.52508C69.3144 1.52508 88.8643 21.0548 88.8643 45.1423Z" fill="#B42F00" stroke="#EE490E" stroke-width="3.05015"/>
<path fill-rule="evenodd" clip-rule="evenodd" d="M58.2897 88.4058C76.9422 82.8463 90.5404 65.5804 90.5404 45.1423C90.5404 20.2109 70.306 0 45.3457 0C38.8168 0 32.6112 1.38282 27.0066 3.87123L58.2897 88.4058Z" fill="#E2430B"/>
<g clip-path="url(#clip0)">
<path d="M36.3384 53.2262V40.6893H33.4402V37.4766H40.3375V53.2262H36.3384Z" fill="white"/>
<path d="M55.3675 41.5431C55.3675 42.9136 54.6261 44.1267 53.3905 44.8009C55.1202 45.5197 56.1988 47.0251 56.1988 48.7775C56.1988 51.6082 53.6824 53.4057 49.7508 53.4057C45.819 53.4057 43.3027 51.6307 43.3027 48.845C43.3027 47.0475 44.471 45.5197 46.2908 44.8009C44.9653 44.0593 44.1115 42.8014 44.1115 41.4309C44.1115 38.9144 46.3134 37.3194 49.7283 37.3194C53.1881 37.3194 55.3675 38.9595 55.3675 41.5431ZM47.0771 48.4406C47.0771 49.7663 48.0208 50.5077 49.7508 50.5077C51.4807 50.5077 52.4467 49.7889 52.4467 48.4406C52.4467 47.1377 51.4807 46.396 49.7508 46.396C48.0207 46.396 47.0771 47.1375 47.0771 48.4406ZM47.4816 41.7678C47.4816 42.8914 48.2904 43.5201 49.7508 43.5201C51.2111 43.5201 52.0199 42.8912 52.0199 41.7678C52.0199 40.5998 51.2111 39.9481 49.7508 39.9481C48.2903 39.9481 47.4816 40.5998 47.4816 41.7678Z" fill="white"/>
<path d="M62.8541 39.2546C63.519 41.2169 63.8562 43.2694 63.8562 45.3627C63.8562 55.859 55.3167 64.3986 44.8202 64.3986C34.3238 64.3986 25.7841 55.859 25.7841 45.3627C25.7841 34.8661 34.3236 26.3268 44.8201 26.3268C46.9137 26.3268 48.9661 26.6638 50.9282 27.329V23.0928C48.9463 22.5495 46.8995 22.2739 44.8202 22.2739C32.0892 22.2739 21.7316 32.6315 21.7316 45.3627C21.7316 58.0939 32.0892 68.4515 44.8202 68.4515C57.5513 68.4515 67.9088 58.0939 67.9088 45.3627C67.9088 43.2836 67.6333 41.2366 67.09 39.2546H62.8541Z" fill="white"/>
<path d="M61.7012 28.4677V24.0405H58.5177V28.4677H54.1171V31.6509H58.5177V36.0779H61.7012V31.6509H66.1281V28.4677H61.7012Z" fill="white"/>
</g>
<defs>
<clipPath id="clip0">
<rect width="46.1775" height="46.1775" fill="white" transform="translate(21.7306 22.2739)"/>
</clipPath>
</defs>
</svg>
