<svg width="91" height="91" viewBox="0 0 91 91" fill="none" xmlns="http://www.w3.org/2000/svg">
<path d="M88.8643 45.1423C88.8643 69.2297 69.3144 88.7595 45.1947 88.7595C21.0749 88.7595 1.52508 69.2297 1.52508 45.1423C1.52508 21.0548 21.0749 1.52508 45.1947 1.52508C69.3144 1.52508 88.8643 21.0548 88.8643 45.1423Z" fill="#B42F00" stroke="#EE490E" stroke-width="3.05015"/>
<path fill-rule="evenodd" clip-rule="evenodd" d="M58.2897 88.4059C76.9422 82.8463 90.5404 65.5805 90.5404 45.1423C90.5404 20.2109 70.3061 0 45.3457 0C38.8168 0 32.6113 1.38282 27.0066 3.87125L58.2897 88.4059Z" fill="#E2430B"/>
<g clip-path="url(#clip0)">
<path d="M44.663 38.6904V58.3907L60.8311 55.4143V45.8156C60.8311 45.4138 61.1919 45.1017 61.6034 45.1475L63.5925 45.4461C63.9425 45.485 64.2067 45.7724 64.2067 46.1142V57.2652C64.2067 57.5822 63.9785 57.856 63.6591 57.9227L45.9602 61.6143C45.1049 61.7926 44.2205 61.7946 43.3644 61.6199L25.8555 58.0473C25.5413 57.9832 25.3135 57.7181 25.3051 57.4066L25.0027 46.0818C24.9932 45.7266 25.2702 45.4256 25.635 45.3945L40.5078 44.1268C40.7657 44.1048 40.9895 43.9451 41.0881 43.713L43.3287 38.4344C43.6178 37.7532 44.663 37.9538 44.663 38.6904ZM24.8345 32.2403L20.1673 41.9179C19.9392 42.3908 20.3294 42.9244 20.8649 42.8719L38.3926 41.1539C38.6403 41.1296 38.8555 40.9783 38.9565 40.7576L44.5962 28.4324L25.3372 31.8639C25.1168 31.9032 24.9295 32.0434 24.8345 32.2403ZM44.5963 28.4324L50.5639 41.1429C50.6682 41.365 50.8883 41.5149 51.1392 41.5345L68.6338 42.8992C69.1611 42.9403 69.5396 42.4166 69.3201 41.9498L64.7576 32.2468C64.6632 32.0461 64.4735 31.9032 64.2496 31.864L44.5963 28.4324Z" fill="white"/>
</g>
<defs>
<clipPath id="clip0">
<rect width="49.2828" height="47.8073" fill="white" transform="translate(20.1008 21.1873)"/>
</clipPath>
</defs>
</svg>
