<svg width="91" height="91" viewBox="0 0 91 91" fill="none" xmlns="http://www.w3.org/2000/svg">
<path d="M88.8643 45.1423C88.8643 69.2297 69.3144 88.7595 45.1947 88.7595C21.0749 88.7595 1.52508 69.2297 1.52508 45.1423C1.52508 21.0548 21.0749 1.52508 45.1947 1.52508C69.3144 1.52508 88.8643 21.0548 88.8643 45.1423Z" fill="#B42F00" stroke="#EE490E" stroke-width="3.05015"/>
<path fill-rule="evenodd" clip-rule="evenodd" d="M58.2896 88.4059C76.9421 82.8463 90.5403 65.5805 90.5403 45.1423C90.5403 20.2109 70.306 0 45.3457 0C38.8168 0 32.6112 1.38282 27.0065 3.87125L58.2896 88.4059Z" fill="#E2430B"/>
<g clip-path="url(#clip0)">
<path d="M50.2271 25.7604L46.2538 41.6453C41.419 39.6233 34.9597 38.7395 29.2349 40.5112C30.3932 35.4221 33.2102 25.7604 33.2102 25.7604C37.4195 22.3138 45.6081 23.5508 50.2271 25.7604Z" fill="white"/>
<path d="M52.5255 28.077C56.8579 30.6135 64.5178 31.3964 70.0812 29.7357L65.5389 45.0495C60.8715 47.5194 51.9484 47.3358 48.522 43.9134L52.5255 28.077Z" fill="white"/>
<path d="M44.8857 44.9626L40.9165 60.8434C35.9162 58.5431 29.5416 57.0054 23.9037 59.7074C23.9037 59.7074 26.5209 49.4787 27.8708 44.3956C32.2396 41.6856 40.9427 42.4867 44.8857 44.9626Z" fill="white"/>
<path d="M47.6059 47.2388C51.9383 50.3019 59.3016 50.7983 64.7438 48.6917L60.2096 64.0115C55.8187 66.996 47.2285 66.5379 43.1887 63.4445L47.6059 47.2388Z" fill="white"/>
</g>
<defs>
<clipPath id="clip0">
<rect width="46.1775" height="46.1775" fill="white" transform="translate(23.9036 21.7307)"/>
</clipPath>
</defs>
</svg>
