<svg width="91" height="91" viewBox="0 0 91 91" fill="none" xmlns="http://www.w3.org/2000/svg">
<path d="M88.8643 45.1423C88.8643 69.2297 69.3144 88.7595 45.1947 88.7595C21.0749 88.7595 1.52508 69.2297 1.52508 45.1423C1.52508 21.0548 21.0749 1.52508 45.1947 1.52508C69.3144 1.52508 88.8643 21.0548 88.8643 45.1423Z" fill="#B42F00" stroke="#EE490E" stroke-width="3.05015"/>
<path fill-rule="evenodd" clip-rule="evenodd" d="M58.2896 88.4059C76.9422 82.8463 90.5404 65.5805 90.5404 45.1423C90.5404 20.2109 70.3061 0 45.3457 0C38.8168 0 32.6112 1.38283 27.0066 3.87125L58.2896 88.4059Z" fill="#E2430B"/>
<path d="M21.9469 47.6765V62.1123C21.9469 64.7666 24.2895 66.9242 27.1666 66.9242H64.7487C67.6279 66.9242 69.9684 64.7665 69.9684 62.1123V47.6765H21.9469Z" fill="white"/>
<path d="M44.634 25.1479L36.8211 26.8572L43.3666 35.7362L51.8288 33.9616L44.634 25.1479Z" fill="white"/>
<path d="M34.6498 27.3315L26.2292 29.1716L32.7059 37.9679L41.1806 36.1913L34.6498 27.3315Z" fill="white"/>
<path d="M69.935 29.1452L68.1582 22.9321C67.749 21.4211 66.0703 20.4703 64.4145 20.8187L57.3992 22.3546L64.0554 31.4011L69.1561 30.331C69.4338 30.2732 69.6718 30.1134 69.818 29.8902C69.9643 29.667 70.0059 29.3993 69.935 29.1452Z" fill="white"/>
<path d="M55.2259 22.8307L46.8513 24.6631L54.0587 33.4959L61.8695 31.8579L55.2259 22.8307Z" fill="white"/>
<path d="M32.4678 38.0557L29.1272 45.7529H37.318L40.6586 38.0557H32.4678Z" fill="white"/>
<path d="M42.9072 38.0557L39.5666 45.7529H47.7573L51.098 38.0557H42.9072Z" fill="white"/>
<path d="M68.9245 38.0557H63.7862L60.4456 45.7548H69.9685V39.0181C69.9684 38.4849 69.5028 38.0557 68.9245 38.0557Z" fill="white"/>
<path d="M53.3468 38.0557L50.0061 45.7529H58.1948L61.5375 38.0557H53.3468Z" fill="white"/>
<path d="M24.0578 29.6493L22.3561 30.0207C21.5273 30.194 20.8257 30.6578 20.381 31.3238C19.9363 31.9918 19.8048 32.7771 20.0115 33.5373L21.9469 40.5897V45.7519H26.8785L30.0124 38.5321L30.5218 38.4263L24.0578 29.6493Z" fill="white"/>
<g clip-path="url(#clip0)">
<rect width="0.39134" height="0.39134" transform="translate(30.4628 20.7467)" fill="white"/>
<path d="M30.4789 20.9762V21.0985C30.4789 21.121 30.4972 21.1393 30.5196 21.1393H30.8133C30.8357 21.1393 30.854 21.121 30.854 21.0985V20.9762H30.4789Z" fill="white"/>
<path d="M30.6571 20.7842L30.5957 20.7988L30.6471 20.8745L30.7136 20.8593L30.6571 20.7842Z" fill="white"/>
<path d="M30.5791 20.8033L30.513 20.819L30.5639 20.8939L30.6304 20.8788L30.5791 20.8033Z" fill="white"/>
<path d="M30.8558 20.8183L30.8418 20.7654C30.8386 20.7525 30.8254 20.7444 30.8124 20.7474L30.7573 20.7605L30.8096 20.8375L30.8497 20.8284C30.8519 20.8279 30.8537 20.8266 30.8549 20.8247C30.856 20.8228 30.8563 20.8205 30.8558 20.8183Z" fill="white"/>
<path d="M30.7403 20.7646L30.6745 20.7802L30.7311 20.8555L30.7924 20.8415L30.7403 20.7646Z" fill="white"/>
<path d="M30.561 20.8932L30.5348 20.9588H30.5991L30.6254 20.8932H30.561Z" fill="white"/>
<path d="M30.6435 20.8942L30.6172 20.9598H30.6816L30.7078 20.8942H30.6435Z" fill="white"/>
<path d="M30.8456 20.8934H30.8056L30.7796 20.9584H30.8537V20.9015C30.8537 20.897 30.8501 20.8934 30.8456 20.8934Z" fill="white"/>
<path d="M30.7255 20.8942L30.6993 20.9598H30.7636L30.7898 20.8942H30.7255Z" fill="white"/>
<path d="M30.4955 20.8219L30.4821 20.8251C30.4756 20.8265 30.4701 20.8305 30.4666 20.8362C30.4631 20.8419 30.4621 20.8485 30.4637 20.855L30.4789 20.9151V20.9591H30.5176L30.5422 20.8976L30.5462 20.8967L30.4955 20.8219Z" fill="white"/>
</g>
<defs>
<clipPath id="clip0">
<rect width="0.39134" height="0.39134" fill="white" transform="translate(30.4628 20.7467)"/>
</clipPath>
</defs>
</svg>
